<?xml version="1.0" standalone="yes"?>

<svg version="1.1" viewBox="0.0 0.0 960.0 600.0" fill="none" stroke="none" stroke-linecap="square" stroke-miterlimit="10" xmlns="http://www.w3.org/2000/svg" xmlns:xlink="http://www.w3.org/1999/xlink"><clipPath id="p.0"><path d="m0 0l960.0 0l0 600.0l-960.0 0l0 -600.0z" clip-rule="nonzero"></path></clipPath><g clip-path="url(#p.0)"><path fill="#000000" fill-opacity="0.0" d="m0 0l960.0 0l0 600.0l-960.0 0z" fill-rule="evenodd"></path><path fill="#351c75" d="m7.9868765 179.94751l928.8504 0l15.716553 15.716537l-15.716553 15.716537l-928.8504 0l15.7165365 -15.716537z" fill-rule="evenodd"></path><path fill="#990000" d="m8.939258 465.33334l928.8504 0l15.716492 15.716522l-15.716492 15.716553l-928.8504 0l15.716535 -15.716553z" fill-rule="evenodd"></path><path fill="#000000" fill-opacity="0.0" d="m96.46719 179.94969l175.05511 0l0 31.433075l-175.05511 0z" fill-rule="evenodd"></path><path fill="#ffffff" d="m138.11194 194.71436q-0.921875 -0.125 -1.625 -0.125q-2.5625 0 -3.359375 1.734375l0 11.0625l-4.515625 0l0 -16.90625l4.265625 0l0.125 2.015625q1.359375 -2.328125 3.765625 -2.328125q0.75 0 1.40625 0.203125l-0.0625 4.34375zm9.953125 12.984375q-3.71875 0 -6.0625 -2.28125q-2.328125 -2.28125 -2.328125 -6.078125l0 -0.4375q0 -2.546875 0.984375 -4.546875q0.984375 -2.015625 2.78125 -3.09375q1.8125 -1.09375 4.125 -1.09375q3.46875 0 5.453125 2.1875q2.0 2.1875 2.0 6.203125l0 1.84375l-10.765625 0q0.21875 1.65625 1.3125 2.65625q1.109375 1.0 2.796875 1.0q2.609375 0 4.078125 -1.890625l2.21875 2.484375q-1.015625 1.4375 -2.75 2.25q-1.734375 0.796875 -3.84375 0.796875zm-0.515625 -13.875q-1.34375 0 -2.1875 0.90625q-0.828125 0.90625 -1.0625 2.59375l6.28125 0l0 -0.359375q-0.03125 -1.5 -0.8125 -2.3125q-0.78125 -0.828125 -2.21875 -0.828125zm14.796875 13.5625l-4.53125 0l0 -24.0l4.53125 0l0 24.0zm12.5 -7.921875l-8.796875 0l0 -3.640625l8.796875 0l0 3.640625zm14.40625 7.921875l-4.515625 0l0 -17.40625l-5.390625 1.671875l0 -3.671875l9.421875 -3.375l0.484375 0l0 22.78125zm7.8125 -2.21875q0 -1.078125 0.71875 -1.75q0.734375 -0.671875 1.828125 -0.671875q1.109375 0 1.828125 0.671875q0.734375 0.671875 0.734375 1.75q0 1.0625 -0.71875 1.734375q-0.71875 0.65625 -1.84375 0.65625q-1.109375 0 -1.828125 -0.65625q-0.71875 -0.671875 -0.71875 -1.734375zm21.125 -20.765625l0 3.71875l-0.4375 0q-3.0625 0.046875 -4.9375 1.59375q-1.859375 1.546875 -2.234375 4.296875q1.8125 -1.84375 4.578125 -1.84375q2.96875 0 4.71875 2.125q1.75 2.125 1.75 5.59375q0 2.21875 -0.96875 4.015625q-0.953125 1.796875 -2.71875 2.796875q-1.75 1.0 -3.96875 1.0q-3.59375 0 -5.8125 -2.5q-2.203125 -2.5 -2.203125 -6.671875l0 -1.625q0 -3.703125 1.390625 -6.53125q1.40625 -2.84375 4.015625 -4.390625q2.625 -1.5625 6.078125 -1.578125l0.75 0zm-4.40625 11.390625q-1.09375 0 -1.984375 0.578125q-0.890625 0.5625 -1.3125 1.5l0 1.375q0 2.265625 0.890625 3.546875q0.890625 1.265625 2.5 1.265625q1.453125 0 2.34375 -1.140625q0.90625 -1.15625 0.90625 -2.984375q0 -1.859375 -0.90625 -3.0q-0.90625 -1.140625 -2.4375 -1.140625zm21.484375 11.59375l-4.515625 0l0 -17.40625l-5.390625 1.671875l0 -3.671875l9.421875 -3.375l0.484375 0l0 22.78125z" fill-rule="nonzero"></path><path fill="#000000" fill-opacity="0.0" d="m96.997375 463.73404l175.05511 0l0 31.433075l-175.05511 0z" fill-rule="evenodd"></path><path fill="#ffffff" d="m139.94681 474.2643l0.140625 1.890625q1.796875 -2.203125 4.859375 -2.203125q3.265625 0 4.484375 2.578125q1.78125 -2.578125 5.078125 -2.578125q2.75 0 4.09375 1.609375q1.34375 1.59375 1.34375 4.8125l0 10.796875l-4.53125 0l0 -10.78125q0 -1.4375 -0.5625 -2.09375q-0.5625 -0.671875 -1.984375 -0.671875q-2.03125 0 -2.8125 1.9375l0.015625 11.609375l-4.515625 0l0 -10.765625q0 -1.46875 -0.578125 -2.125q-0.578125 -0.65625 -1.96875 -0.65625q-1.921875 0 -2.78125 1.59375l0 11.953125l-4.515625 0l0 -16.90625l4.234375 0zm33.265625 16.90625q-0.3125 -0.609375 -0.453125 -1.515625q-1.640625 1.828125 -4.265625 1.828125q-2.484375 0 -4.125 -1.4375q-1.625 -1.4375 -1.625 -3.625q0 -2.6875 1.984375 -4.125q2.0 -1.4375 5.765625 -1.453125l2.078125 0l0 -0.96875q0 -1.171875 -0.609375 -1.875q-0.59375 -0.703125 -1.890625 -0.703125q-1.140625 0 -1.796875 0.546875q-0.640625 0.546875 -0.640625 1.5l-4.515625 0q0 -1.46875 0.90625 -2.71875q0.90625 -1.25 2.5625 -1.953125q1.65625 -0.71875 3.71875 -0.71875q3.125 0 4.953125 1.578125q1.84375 1.5625 1.84375 4.40625l0 7.328125q0.015625 2.40625 0.671875 3.640625l0 0.265625l-4.5625 0zm-3.734375 -3.140625q1.0 0 1.84375 -0.4375q0.84375 -0.453125 1.25 -1.203125l0 -2.90625l-1.6875 0q-3.390625 0 -3.609375 2.34375l-0.015625 0.265625q0 0.84375 0.59375 1.390625q0.59375 0.546875 1.625 0.546875zm20.25 -1.53125q0 -0.828125 -0.828125 -1.296875q-0.8125 -0.484375 -2.625 -0.859375q-6.03125 -1.265625 -6.03125 -5.125q0 -2.25 1.859375 -3.75q1.875 -1.515625 4.890625 -1.515625q3.21875 0 5.140625 1.515625q1.9375 1.515625 1.9375 3.9375l-4.515625 0q0 -0.96875 -0.625 -1.59375q-0.625 -0.640625 -1.953125 -0.640625q-1.140625 0 -1.765625 0.515625q-0.625 0.515625 -0.625 1.3125q0 0.75 0.703125 1.21875q0.71875 0.453125 2.40625 0.796875q1.6875 0.328125 2.84375 0.75q3.578125 1.3125 3.578125 4.546875q0 2.3125 -1.984375 3.75q-1.984375 1.421875 -5.125 1.421875q-2.125 0 -3.78125 -0.75q-1.640625 -0.765625 -2.578125 -2.078125q-0.9375 -1.328125 -0.9375 -2.859375l4.28125 0q0.0625 1.203125 0.890625 1.84375q0.828125 0.640625 2.21875 0.640625q1.296875 0 1.953125 -0.484375q0.671875 -0.5 0.671875 -1.296875zm12.703125 -16.390625l0 4.15625l2.890625 0l0 3.3125l-2.890625 0l0 8.4375q0 0.9375 0.359375 1.34375q0.359375 0.40625 1.375 0.40625q0.75 0 1.328125 -0.109375l0 3.421875q-1.328125 0.40625 -2.734375 0.40625q-4.75 0 -4.84375 -4.796875l0 -9.109375l-2.46875 0l0 -3.3125l2.46875 0l0 -4.15625l4.515625 0zm13.1875 21.375q-3.71875 0 -6.0625 -2.28125q-2.328125 -2.28125 -2.328125 -6.078125l0 -0.4375q0 -2.546875 0.984375 -4.546875q0.984375 -2.015625 2.78125 -3.09375q1.8125 -1.09375 4.125 -1.09375q3.46875 0 5.453125 2.1875q2.0 2.1875 2.0 6.203125l0 1.84375l-10.765625 0q0.21875 1.65625 1.3125 2.65625q1.109375 1.0 2.796875 1.0q2.609375 0 4.078125 -1.890625l2.21875 2.484375q-1.015625 1.4375 -2.75 2.25q-1.734375 0.796875 -3.84375 0.796875zm-0.515625 -13.875q-1.34375 0 -2.1875 0.90625q-0.828125 0.90625 -1.0625 2.59375l6.28125 0l0 -0.359375q-0.03125 -1.5 -0.8125 -2.3125q-0.78125 -0.828125 -2.21875 -0.828125zm19.53125 0.890625q-0.921875 -0.125 -1.625 -0.125q-2.5625 0 -3.359375 1.734375l0 11.0625l-4.515625 0l0 -16.90625l4.265625 0l0.125 2.015625q1.359375 -2.328125 3.765625 -2.328125q0.75 0 1.40625 0.203125l-0.0625 4.34375z" fill-rule="nonzero"></path><path fill="#000000" fill-opacity="0.0" d="m319.9344 104.37445l175.05511 0l0 31.433075l-175.05511 0z" fill-rule="evenodd"></path><path fill="#351c75" d="m335.59085 123.53724l-1.21875 1.21875l0 3.8749924l-3.390625 0l0 -17.999992l3.390625 0l0 9.96875l0.65625 -0.84375l3.25 -3.8125l4.0625 0l-4.578125 5.296875l4.984375 7.3906174l-3.890625 0l-3.265625 -5.0937424zm13.4921875 2.59375q0.9375 0 1.515625 -0.515625q0.59375 -0.515625 0.609375 -1.375l3.1875 0q-0.015625 1.296875 -0.71875 2.375q-0.6875 1.0625 -1.890625 1.6562424q-1.1875 0.59375 -2.640625 0.59375q-2.71875 0 -4.296875 -1.7187424q-1.5625 -1.734375 -1.5625 -4.78125l0 -0.234375q0 -2.921875 1.546875 -4.671875q1.5625 -1.75 4.28125 -1.75q2.375 0 3.8125 1.359375q1.4375 1.359375 1.46875 3.609375l-3.1875 0q-0.015625 -0.984375 -0.609375 -1.59375q-0.578125 -0.625 -1.546875 -0.625q-1.171875 0 -1.78125 0.859375q-0.609375 0.859375 -0.609375 2.796875l0 0.34375q0 1.96875 0.59375 2.828125q0.609375 0.84375 1.828125 0.84375zm10.546875 -8.796875q1.34375 -1.625 3.390625 -1.625q4.125 0 4.171875 4.796875l0 8.124992l-3.375 0l0 -8.031242q0 -1.09375 -0.46875 -1.609375q-0.46875 -0.515625 -1.5625 -0.515625q-1.484375 0 -2.15625 1.140625l0 9.015617l-3.390625 0l0 -17.999992l3.390625 0l0 6.703125zm17.476562 11.296867q-0.234375 -0.453125 -0.34375 -1.1406174q-1.234375 1.3749924 -3.203125 1.3749924q-1.859375 0 -3.09375 -1.0781174q-1.21875 -1.078125 -1.21875 -2.71875q0 -2.015625 1.484375 -3.09375q1.5 -1.078125 4.328125 -1.09375l1.5625 0l0 -0.71875q0 -0.890625 -0.453125 -1.40625q-0.453125 -0.53125 -1.421875 -0.53125q-0.859375 0 -1.34375 0.40625q-0.484375 0.40625 -0.484375 1.125l-3.390625 0q0 -1.09375 0.671875 -2.03125q0.6875 -0.9375 1.921875 -1.46875q1.25 -0.546875 2.796875 -0.546875q2.34375 0 3.71875 1.1875q1.375 1.171875 1.375 3.3125l0 5.484375q0.015625 1.8125 0.515625 2.7343674l0 0.203125l-3.421875 0zm-2.8125 -2.3593674q0.75 0 1.375 -0.328125q0.640625 -0.34375 0.953125 -0.90625l0 -2.171875l-1.265625 0q-2.546875 0 -2.703125 1.75l-0.015625 0.203125q0 0.640625 0.4375 1.046875q0.453125 0.40625 1.21875 0.40625zm11.4453125 -10.328125l0.109375 1.46875q1.359375 -1.703125 3.640625 -1.703125q2.015625 0 3.0 1.1875q0.984375 1.1875 1.0 3.546875l0 8.187492l-3.375 0l0 -8.109367q0 -1.078125 -0.46875 -1.5625q-0.46875 -0.484375 -1.5625 -0.484375q-1.4375 0 -2.140625 1.21875l0 8.937492l-3.390625 0l0 -12.687492l3.1875 0zm9.832031 6.25q0 -2.921875 1.390625 -4.703125q1.390625 -1.78125 3.734375 -1.78125q2.09375 0 3.25 1.4375l0.140625 -1.203125l3.078125 0l0 12.265617q0 1.671875 -0.765625 2.890625q-0.75 1.234375 -2.125 1.875q-1.375 0.65625 -3.203125 0.65625q-1.40625 0 -2.734375 -0.5625q-1.3125 -0.5625 -2.0 -1.4375l1.5 -2.0625q1.265625 1.421875 3.078125 1.421875q1.34375 0 2.09375 -0.71875q0.75 -0.71875 0.75 -2.046875l0 -0.6874924q-1.171875 1.3281174 -3.078125 1.3281174q-2.28125 0 -3.703125 -1.7812424q-1.40625 -1.796875 -1.40625 -4.75l0 -0.140625zm3.390625 0.25q0 1.71875 0.6875 2.703125q0.6875 0.96875 1.890625 0.96875q1.546875 0 2.21875 -1.15625l0 -5.328125q-0.671875 -1.15625 -2.1875 -1.15625q-1.21875 0 -1.921875 1.0q-0.6875 0.984375 -0.6875 2.96875zm11.871094 7.6562424l-2.53125 0l6.28125 -18.531242l2.53125 0l-6.28125 18.531242zm19.324219 -7.6874924q0 3.046875 -1.3125 4.75q-1.296875 1.7031174 -3.625 1.7031174q-2.0625 0 -3.296875 -1.5781174l-0.15625 1.3437424l-3.046875 0l0 -17.999992l3.390625 0l0 6.453125q1.171875 -1.375 3.078125 -1.375q2.328125 0 3.640625 1.71875q1.328125 1.703125 1.328125 4.796875l0 0.1875zm-3.390625 -0.25q0 -1.921875 -0.609375 -2.796875q-0.609375 -0.890625 -1.8125 -0.890625q-1.625 0 -2.234375 1.3125l0 5.015625q0.625 1.328125 2.25 1.328125q1.640625 0 2.15625 -1.609375q0.25 -0.78125 0.25 -2.359375zm13.058594 5.171875q-1.25 1.5312424 -3.46875 1.5312424q-2.03125 0 -3.109375 -1.1718674q-1.0625 -1.171875 -1.09375 -3.4375l0 -8.3125l3.390625 0l0 8.203125q0 1.96875 1.796875 1.96875q1.734375 0 2.375 -1.1875l0 -8.984375l3.390625 0l0 12.687492l-3.1875 0l-0.09375 -1.2968674zm5.3515625 -5.140625q0 -2.921875 1.390625 -4.703125q1.390625 -1.78125 3.734375 -1.78125q2.09375 0 3.25 1.4375l0.140625 -1.203125l3.078125 0l0 12.265617q0 1.671875 -0.765625 2.890625q-0.75 1.234375 -2.125 1.875q-1.375 0.65625 -3.203125 0.65625q-1.40625 0 -2.734375 -0.5625q-1.3125 -0.5625 -2.0 -1.4375l1.5 -2.0625q1.265625 1.421875 3.078125 1.421875q1.34375 0 2.09375 -0.71875q0.75 -0.71875 0.75 -2.046875l0 -0.6874924q-1.171875 1.3281174 -3.078125 1.3281174q-2.28125 0 -3.703125 -1.7812424q-1.40625 -1.796875 -1.40625 -4.75l0 -0.140625zm3.390625 0.25q0 1.71875 0.6875 2.703125q0.6875 0.96875 1.890625 0.96875q1.546875 0 2.21875 -1.15625l0 -5.328125q-0.671875 -1.15625 -2.1875 -1.15625q-1.21875 0 -1.921875 1.0q-0.6875 0.984375 -0.6875 2.96875zm11.730469 6.1874924l0 -10.203117l-1.890625 0l0 -2.484375l1.890625 0l0 -1.078125q0 -2.125 1.21875 -3.296875q1.21875 -1.1875 3.421875 -1.1875q0.703125 0 1.734375 0.234375l-0.046875 2.625q-0.421875 -0.109375 -1.03125 -0.109375q-1.90625 0 -1.90625 1.796875l0 1.015625l2.515625 0l0 2.484375l-2.515625 0l0 10.203117l-3.390625 0zm11.2421875 0l-3.390625 0l0 -12.687492l3.390625 0l0 12.687492zm-3.59375 -15.968742q0 -0.75 0.5 -1.234375q0.515625 -0.5 1.390625 -0.5q0.875 0 1.390625 0.5q0.515625 0.484375 0.515625 1.234375q0 0.78125 -0.53125 1.28125q-0.515625 0.484375 -1.375 0.484375q-0.84375 0 -1.375 -0.484375q-0.515625 -0.5 -0.515625 -1.28125zm11.207031 7.078125l2.140625 -3.796875l3.625 0l-3.609375 6.21875l3.75 6.4687424l-3.625 0l-2.265625 -3.9843674l-2.25 3.9843674l-3.640625 0l3.765625 -6.4687424l-3.609375 -6.21875l3.640625 0l2.078125 3.796875z" fill-rule="nonzero"></path><path fill="#8e7cc3" d="m234.32808 170.35345l0 -25.896896l0 0c0 -13.99704 11.346848 -25.343872 25.343887 -25.343872l37.252075 0l0 -7.3104095l15.356812 10.703743l-15.356812 10.703743l0 -7.3104095l-37.252075 0l0 0c-10.248871 0 -18.55722 8.30835 -18.55722 18.557205l0 25.896896z" fill-rule="evenodd"></path><path fill="#8e7cc3" d="m502.64566 117.65748l43.050262 0c12.220093 0 22.126465 9.906364 22.126465 22.126472l0 15.584381l6.382324 0l-9.34491 13.407257l-9.34491 -13.407257l6.3823853 0l0 -15.584381l0 0c0 -8.947769 -7.253601 -16.20137 -16.201355 -16.20137l-43.050262 0z" fill-rule="evenodd"></path><path fill="#000000" fill-opacity="0.0" d="m15.241469 89.91338l227.08661 0l0 38.33071l-227.08661 0z" fill-rule="evenodd"></path><path fill="#000000" d="m69.508415 103.86186q0.109375 0.28125 -0.59375 0.796875q-0.703125 0.5 -1.578125 0.5q-1.65625 0 -2.625 -1.28125q-0.96875 -1.28125 -0.96875 -3.09375q0 -2.40625 1.234375 -3.625q0.890625 -0.875 2.4375 -0.875q1.5625 0 1.953125 0.640625l0.015625 -0.390625l1.953125 0q-0.078125 2.09375 -0.078125 5.0625l0 2.15625q0 2.734375 -1.25 3.765625q-0.859375 0.71875 -2.59375 0.921875q-0.828125 0.09375 -2.203125 0.09375l-0.171875 -1.625q1.875 0 2.53125 -0.171875q0.65625 -0.171875 0.921875 -0.375q0.265625 -0.203125 0.46875 -0.53125q0.359375 -0.609375 0.359375 -1.96875l0.1875 0zm-0.75 -5.421875q-0.1875 -0.25 -0.515625 -0.390625q-0.3125 -0.140625 -0.75 -0.140625q-0.4375 0 -0.75 0.140625q-0.59375 0.265625 -0.828125 0.984375q-0.234375 0.703125 -0.234375 1.46875q0 0.75 0.0625 1.125q0.125 0.765625 0.53125 1.265625q0.40625 0.484375 1.15625 0.484375q1.203125 0 1.625 -1.078125q0.265625 -0.640625 0.265625 -1.328125q0 -0.703125 -0.0625 -1.109375q-0.046875 -0.421875 -0.1875 -0.796875q-0.125 -0.390625 -0.3125 -0.625zm6.7951813 -3.734375l0 -0.71875q0 -0.421875 0.390625 -0.6875q0.40625 -0.28125 0.796875 -0.28125q0.390625 0 0.78125 0.28125q0.40625 0.265625 0.40625 0.6875l0 0.71875q0 0.421875 -0.40625 0.703125q-0.390625 0.265625 -0.78125 0.265625q-0.390625 0 -0.796875 -0.265625q-0.390625 -0.28125 -0.390625 -0.703125zm-2.0625 3.4375l0 -1.609375l4.21875 0l0 7.0l2.296875 0l0 1.625l-6.78125 0l0 -1.625l2.546875 0l0 -5.390625l-2.28125 0zm11.779556 0l0 3.484375q0 0.671875 0.0625 1.03125q0.078125 0.34375 0.25 0.546875q0.171875 0.1875 0.46875 0.265625q0.3125 0.0625 0.90625 0.0625l1.78125 0l-0.109375 1.625l-1.625 0q-2.203125 0 -2.984375 -0.859375q-0.5 -0.578125 -0.625 -1.765625q-0.046875 -0.515625 -0.046875 -1.25l0 -3.140625l-2.3125 0l0.21875 -1.609375l2.09375 0l0 -2.6875l1.921875 -0.59375l0 3.28125l3.390625 0l0 1.609375l-3.390625 0zm20.715363 6.265625q-1.015625 0.9375 -2.53125 0.9375q-0.984375 0 -1.796875 -0.375q-0.796875 -0.390625 -1.328125 -1.015625q-1.0625 -1.3125 -1.0625 -3.15625q0 -1.1875 0.484375 -2.203125q0.5 -1.03125 1.453125 -1.671875q0.96875 -0.640625 2.390625 -0.640625q1.421875 0 2.359375 0.921875l-0.515625 1.421875q-1.09375 -0.71875 -2.046875 -0.71875q-0.9375 0 -1.5625 0.8125q-0.625 0.8125 -0.625 2.109375q0 1.296875 0.625 2.09375q0.625 0.796875 1.59375 0.796875q0.96875 0 2.03125 -0.75l0.53125 1.4375zm9.045181 -4.390625l0 5.140625l-1.921875 0l0 -4.984375q0 -1.40625 -0.34375 -1.859375q-0.3125 -0.40625 -0.984375 -0.40625q-0.6875 0 -1.203125 0.484375q-0.515625 0.484375 -0.515625 1.0l0 5.765625l-1.9375 0l0 -11.875l1.9375 -0.21875l0 3.859375q0.5 -0.640625 2.203125 -0.640625q2.765625 0 2.765625 3.734375zm3.6858063 4.71875q-0.90625 -0.609375 -1.34375 -1.625q-0.4375 -1.015625 -0.4375 -2.265625q0 -1.265625 0.390625 -2.28125q0.40625 -1.015625 1.234375 -1.640625q0.828125 -0.640625 1.828125 -0.640625q1.859375 0 2.71875 1.265625q0.859375 1.265625 0.859375 3.0625l0 0.734375l-5.078125 0q0.03125 0.84375 0.53125 1.609375q0.5 0.765625 1.484375 0.765625q0.6875 -0.078125 2.28125 -0.9375l0.6875 1.375q-1.1875 1.1875 -2.96875 1.1875q-1.265625 0 -2.1875 -0.609375zm3.359375 -4.953125q-0.109375 -1.875 -1.40625 -1.875q-1.53125 0 -1.71875 1.875l3.125 0zm10.295174 4.625q-1.015625 0.9375 -2.53125 0.9375q-0.984375 0 -1.796875 -0.375q-0.7968674 -0.390625 -1.3281174 -1.015625q-1.0625 -1.3125 -1.0625 -3.15625q0 -1.1875 0.484375 -2.203125q0.5 -1.03125 1.453125 -1.671875q0.9687424 -0.640625 2.3906174 -0.640625q1.421875 0 2.359375 0.921875l-0.515625 1.421875q-1.09375 -0.71875 -2.046875 -0.71875q-0.9375 0 -1.5625 0.8125q-0.6249924 0.8125 -0.6249924 2.109375q0 1.296875 0.6249924 2.09375q0.625 0.796875 1.59375 0.796875q0.96875 0 2.03125 -0.75l0.53125 1.4375zm4.2795563 -5.0l3.15625 -2.875l2.53125 0l-3.921875 3.640625l4.328125 4.984375l-2.46875 0l-3.234375 -3.96875l-0.390625 0.359375l0 3.609375l-1.9375 0l0 -11.875l1.9375 -0.21875l0 6.34375zm10.107697 4.3125q1.1875 0 1.625 -1.1875q0.25 -0.703125 0.25 -1.453125q0 -0.765625 -0.0625 -1.171875q-0.109375 -0.90625 -0.546875 -1.453125q-0.421875 -0.546875 -1.265625 -0.546875q-1.15625 0 -1.578125 1.21875q-0.25 0.71875 -0.25 1.5q0 1.421875 0.40625 2.265625q0.40625 0.828125 1.421875 0.828125zm2.859375 -6.15625q0.9375 1.265625 0.9375 3.265625q0 1.984375 -1.03125 3.25q-1.015625 1.265625 -2.765625 1.265625q-0.921875 0 -1.671875 -0.359375q-0.75 -0.359375 -1.203125 -1.015625q-0.89064026 -1.234375 -0.89064026 -3.203125q0 -1.96875 1.0000153 -3.21875q1.015625 -1.265625 2.84375 -1.265625q1.84375 0 2.78125 1.28125zm9.357666 4.6875q0 3.09375 -3.40625 3.09375q-3.390625 0 -3.390625 -3.09375l0 -5.71875l1.921875 0l0 5.84375q0 0.71875 0.328125 1.03125q0.34375 0.3125 1.140625 0.3125q0.8125 0 1.140625 -0.3125q0.34375 -0.3125 0.34375 -1.03125l0 -5.84375l1.921875 0l0 5.71875zm5.4514465 -4.109375l0 3.484375q0 0.671875 0.0625 1.03125q0.078125 0.34375 0.25 0.546875q0.171875 0.1875 0.46875 0.265625q0.3125 0.0625 0.90625 0.0625l1.78125 0l-0.109375 1.625l-1.625 0q-2.203125 0 -2.984375 -0.859375q-0.5 -0.578125 -0.625 -1.765625q-0.046875 -0.515625 -0.046875 -1.25l0 -3.140625l-2.3125 0l0.21875 -1.609375l2.09375 0l0 -2.6875l1.921875 -0.59375l0 3.28125l3.390625 0l0 1.609375l-3.390625 0zm20.590363 0.359375l0 1.734375l-5.5 0l0 -1.734375l5.5 0zm4.170166 3.265625q0.109375 0.9375 0.546875 1.46875q0.40625 0.484375 1.265625 0.484375q1.125 0 1.546875 -1.203125q0.21875 -0.703125 0.21875 -1.46875q0 -0.765625 -0.046875 -1.1875q-0.09375 -0.953125 -0.484375 -1.453125q-0.390625 -0.5 -1.234375 -0.5q-1.40625 0 -1.734375 1.34375q-0.140625 0.625 -0.140625 1.359375q0 0.71875 0.0625 1.15625zm-0.0625 -4.890625q0.359375 -0.59375 2.140625 -0.59375q1.78125 0 2.609375 1.28125q0.828125 1.265625 0.828125 3.140625q0 2.421875 -1.171875 3.6875q-0.890625 0.953125 -2.375 0.953125q-1.0 0 -1.53125 -0.375q-0.515625 -0.375 -0.53125 -0.421875l0.03125 0.609375l-1.921875 0l0 -11.875l1.921875 -0.21875l0 3.8125z" fill-rule="nonzero"></path><path fill="#000000" d="m34.91278 118.37749l3.5625 -3.25l1.671875 0l-3.578125 3.328125l4.078125 4.703125l-1.671875 0l-3.34375 -4.09375l-0.71875 0.640625l0 3.453125l-1.34375 0l0 -11.3125l1.34375 -0.15625l0 6.6875zm13.263931 4.25q-0.78125 0.71875 -2.1875 0.71875q-0.921875 0 -1.671875 -0.34375q-0.734375 -0.359375 -1.21875 -0.9375q-1.0 -1.234375 -1.0 -2.96875q0 -1.125 0.453125 -2.078125q0.46875 -0.953125 1.359375 -1.546875q0.890625 -0.59375 2.203125 -0.59375q1.3125 0 2.03125 0.703125l-0.328125 0.890625q-0.84375 -0.5625 -1.90625 -0.5625q-1.0625 0 -1.765625 0.90625q-0.703125 0.90625 -0.703125 2.3125q0 1.40625 0.703125 2.296875q0.703125 0.890625 1.78125 0.890625q1.09375 0 1.921875 -0.578125l0.328125 0.890625zm9.092056 -4.3125l0 4.84375l-1.328125 0l0 -4.6875q0 -1.5 -0.40625 -2.03125q-0.390625 -0.53125 -1.21875 -0.53125q-0.8125 0 -1.421875 0.578125q-0.59375 0.5625 -0.59375 1.203125l0 5.46875l-1.34375 0l0 -11.3125l1.34375 -0.15625l0 4.40625q0.9375 -1.21875 2.5 -1.21875q2.46875 0 2.46875 3.4375zm7.3733063 3.046875l0 -2.046875l-1.09375 0.15625q-1.140625 0.15625 -1.578125 0.3125q-0.984375 0.375 -0.984375 1.265625q0 0.59375 0.34375 0.953125q0.359375 0.359375 0.96875 0.359375q1.359375 0 2.34375 -1.0zm0 -3.734375q0 -1.734375 -1.453125 -1.734375q-0.6875 0 -1.53125 0.171875q-0.828125 0.15625 -1.15625 0.296875l-0.3125 -0.96875q1.515625 -0.515625 2.84375 -0.515625q1.328125 0 2.125 0.609375q0.8125 0.609375 0.8125 1.875l0 5.796875l-1.09375 0l-0.1875 -0.9375q-0.46875 0.484375 -1.203125 0.8125q-0.734375 0.3125 -1.4375 0.3125q-1.015625 0 -1.6875 -0.609375q-0.671875 -0.625 -0.671875 -1.734375q0 -1.125 0.875 -1.640625q0.59375 -0.359375 1.265625 -0.5q0.671875 -0.140625 1.75 -0.265625l1.0625 -0.125l0 -0.84375zm7.7951813 -2.75q2.5 0 2.5 3.171875l0 5.109375l-1.328125 0l0 -4.953125q0 -0.84375 -0.09375 -1.203125q-0.078125 -0.375 -0.265625 -0.609375q-0.375 -0.484375 -1.21875 -0.484375q-0.859375 0 -1.453125 0.5q-0.59375 0.5 -0.59375 1.3125l0 5.4375l-1.328125 0l0 -8.03125l1.21875 0l0.078125 0.875q0.796875 -1.125 2.484375 -1.125zm10.076431 6.75q-0.25 0.625 -0.875 1.078125q-0.625 0.453125 -1.40625 0.453125q-1.515625 0 -2.40625 -1.171875q-0.890625 -1.1875 -0.890625 -2.90625q0 -2.28125 1.140625 -3.40625q0.8125 -0.796875 2.21875 -0.796875q1.40625 0 2.21875 1.34375l0.046875 -1.09375l1.359375 0q-0.0625 1.796875 -0.0625 4.765625l0 2.15625q0 2.59375 -1.140625 3.53125q-0.796875 0.671875 -2.4375 0.859375q-0.8125 0.09375 -1.90625 0.09375l-0.109375 -1.03125q1.59375 0 2.28125 -0.1875q0.703125 -0.1875 1.015625 -0.421875q0.3125 -0.234375 0.546875 -0.609375q0.40625 -0.6875 0.40625 -2.125l0 -0.53125zm-0.640625 -5.078125q-0.21875 -0.296875 -0.609375 -0.46875q-0.375 -0.171875 -0.875 -0.171875q-0.5 0 -0.875 0.171875q-0.703125 0.3125 -0.96875 1.109375q-0.265625 0.796875 -0.265625 1.59375q0 0.78125 0.0625 1.1875q0.140625 0.84375 0.609375 1.421875q0.484375 0.578125 1.375 0.578125q1.40625 0 1.90625 -1.265625q0.28125 -0.6875 0.28125 -1.421875q0 -0.734375 -0.0625 -1.171875q-0.046875 -0.4375 -0.203125 -0.859375q-0.140625 -0.421875 -0.375 -0.703125zm9.435806 -5.0l1.4375 0l-5.1875 13.25l-1.40625 0l5.15625 -13.25zm4.9358063 8.546875q0.125 1.03125 0.609375 1.625q0.5 0.59375 1.5 0.59375q1.34375 0 1.828125 -1.40625q0.234375 -0.75 0.234375 -1.546875q0 -0.796875 -0.046875 -1.234375q-0.109375 -1.03125 -0.578125 -1.625q-0.453125 -0.59375 -1.4375 -0.59375q-1.640625 0 -2.015625 1.578125q-0.15625 0.65625 -0.15625 1.40625q0 0.75 0.0625 1.203125zm-0.0625 -3.859375q0.828125 -1.359375 2.4375 -1.359375q1.625 0 2.375 1.171875q0.765625 1.171875 0.765625 2.953125q0 2.3125 -1.09375 3.484375q-0.796875 0.859375 -2.15625 0.859375q-0.90625 0 -1.375 -0.328125q-0.46875 -0.34375 -0.953125 -0.953125l0 1.09375l-1.328125 0l0 -11.3125l1.328125 -0.15625l0 4.546875zm13.826431 4.3125q0 2.796875 -3.109375 2.796875q-3.09375 0 -3.09375 -2.796875l0 -5.421875l1.328125 0l0 5.546875q0 0.84375 0.421875 1.25q0.421875 0.390625 1.34375 0.390625q0.921875 0 1.34375 -0.390625q0.4375 -0.40625 0.4375 -1.25l0 -5.546875l1.328125 0l0 5.421875zm7.6858063 1.078125q-0.25 0.625 -0.875 1.078125q-0.625 0.453125 -1.40625 0.453125q-1.515625 0 -2.40625 -1.171875q-0.890625 -1.1875 -0.890625 -2.90625q0 -2.28125 1.140625 -3.40625q0.8125 -0.796875 2.21875 -0.796875q1.40625 0 2.21875 1.34375l0.046875 -1.09375l1.359375 0q-0.0625 1.796875 -0.0625 4.765625l0 2.15625q0 2.59375 -1.140625 3.53125q-0.796875 0.671875 -2.4375 0.859375q-0.8125 0.09375 -1.90625 0.09375l-0.109375 -1.03125q1.59375 0 2.28125 -0.1875q0.703125 -0.1875 1.015625 -0.421875q0.3125 -0.234375 0.546875 -0.609375q0.40625 -0.6875 0.40625 -2.125l0 -0.53125zm-0.640625 -5.078125q-0.21875 -0.296875 -0.609375 -0.46875q-0.375 -0.171875 -0.875 -0.171875q-0.5 0 -0.875 0.171875q-0.703125 0.3125 -0.96875 1.109375q-0.265625 0.796875 -0.265625 1.59375q0 0.78125 0.0625 1.1875q0.140625 0.84375 0.609375 1.421875q0.484375 0.578125 1.375 0.578125q1.40625 0 1.90625 -1.265625q0.28125 -0.6875 0.28125 -1.421875q0 -0.734375 -0.0625 -1.171875q-0.046875 -0.4375 -0.203125 -0.859375q-0.140625 -0.421875 -0.375 -0.703125zm7.8733063 6.609375l-1.328125 0l0 -7.015625l-2.09375 0l0 -1.015625l2.09375 0q0 -1.484375 0.125 -1.875q0.234375 -0.765625 0.59375 -1.09375q0.71875 -0.609375 2.59375 -0.609375l0.765625 0l-0.0625 1.03125l-0.734375 0q-0.5625 0 -0.90625 0.046875q-0.328125 0.046875 -0.578125 0.21875q-0.46875 0.296875 -0.46875 1.296875l0 0.984375l2.75 0l0 1.015625l-2.75 0l0 7.015625zm7.7951813 -10.15625l0 -0.71875q0 -0.265625 0.296875 -0.46875q0.296875 -0.203125 0.59375 -0.203125q0.296875 0 0.59375 0.203125q0.296875 0.203125 0.296875 0.46875l0 0.71875q0 0.265625 -0.296875 0.46875q-0.296875 0.203125 -0.59375 0.203125q-0.296875 0 -0.59375 -0.203125q-0.296875 -0.203125 -0.296875 -0.46875zm-2.0625 3.140625l0 -1.015625l3.625 0l0 7.0l2.296875 0l0 1.03125l-6.1875 0l0 -1.03125l2.546875 0l0 -5.984375l-2.28125 0zm8.076431 -1.015625l1.53125 0l1.90625 3.09375l1.90625 -3.09375l1.390625 0l-2.46875 3.890625l2.546875 4.140625l-1.46875 0l-1.96875 -3.203125l-2.046875 3.203125l-1.453125 0l2.625 -4.109375l-2.5 -3.921875zm20.418488 8.03125l-1.34375 0l0 -8.03125l1.09375 0l0.109375 1.484375q0.5 -0.84375 1.296875 -1.28125q0.796875 -0.453125 1.796875 -0.453125l0.65625 0l0 1.25l-0.84375 0q-1.28125 0 -2.03125 0.640625q-0.734375 0.640625 -0.734375 1.921875l0 4.46875zm7.8108063 -0.375q-0.84375 -0.5625 -1.25 -1.5q-0.40625 -0.953125 -0.40625 -2.140625q0 -1.203125 0.375 -2.15625q0.375 -0.953125 1.125 -1.53125q0.75 -0.578125 1.65625 -0.578125q1.703125 0 2.484375 1.171875q0.796875 1.15625 0.796875 2.859375l0 0.4375l-5.09375 0q0.046875 1.234375 0.609375 2.109375q0.578125 0.859375 1.734375 0.859375q0.765625 -0.078125 2.140625 -0.828125l0.453125 0.90625q-0.953125 0.953125 -2.609375 0.953125q-1.171875 0 -2.015625 -0.5625zm3.5 -4.40625q-0.140625 -2.46875 -1.71875 -2.46875q-1.796875 0 -2.046875 2.46875l3.765625 0zm9.904556 4.78125l-1.0625 0q-1.40625 0 -2.015625 -0.296875q-0.359375 -0.171875 -0.5625 -0.390625q-0.546875 -0.5625 -0.5625 -2.484375l0 -7.265625l-2.40625 0l0 -1.03125l3.734375 0l0 8.234375q0 1.453125 0.265625 1.78125q0.28125 0.328125 0.671875 0.375q0.40625 0.046875 0.828125 0.046875l1.171875 0l-0.0625 1.03125zm8.451431 -6.0625l0 1.140625l-4.90625 0l0 -1.140625l4.90625 0zm3.2639313 -3.359375q1.0 -0.421875 2.46875 -1.5l1.375 0l0 9.859375l2.296875 0l0 1.0625l-6.125 0l0 -1.0625l2.453125 0l0 -8.390625q-0.203125 0.125 -1.03125 0.625q-0.8125 0.484375 -1.4375 0.734375l0 -1.328125zm12.654556 9.421875l-2.203125 0l0 -2.203125l2.203125 0l0 2.203125zm5.7795563 -3.234375q0 1.0 0.578125 1.65625q0.578125 0.640625 1.515625 0.640625q0.9375 0 1.5 -0.65625q0.578125 -0.671875 0.578125 -1.65625q0 -1.0 -0.546875 -1.671875q-0.53125 -0.6875 -1.515625 -0.6875q-0.96875 0 -1.546875 0.6875q-0.5625 0.6875 -0.5625 1.6875zm0.890625 -3.0q0.6875 -0.4375 1.578125 -0.4375q1.421875 0 2.265625 0.953125q0.84375 0.953125 0.84375 2.4375q0 0.796875 -0.296875 1.46875q-0.28125 0.65625 -0.765625 1.09375q-1.0 0.90625 -2.546875 0.90625q-1.53125 0 -2.484375 -0.96875q-0.9375 -0.984375 -0.9375 -2.796875q0 -1.828125 1.203125 -3.296875l3.328125 -4.046875l1.765625 0l-3.953125 4.6875zm7.0608063 -3.1875q1.0 -0.421875 2.46875 -1.5l1.375 0l0 9.859375l2.296875 0l0 1.0625l-6.125 0l0 -1.0625l2.453125 0l0 -8.390625q-0.203125 0.125 -1.03125 0.625q-0.8125 0.484375 -1.4375 0.734375l0 -1.328125z" fill-rule="nonzero"></path><path fill="#000000" fill-opacity="0.0" d="m561.56696 89.91338l147.1181 0l0 38.33071l-147.1181 0z" fill-rule="evenodd"></path><path fill="#000000" d="m600.7664 97.18999q0.25 -0.90625 1.65625 -0.90625q1.796875 0 2.03125 2.46875q0.03125 0.4375 0.03125 0.953125l0 5.453125l-1.8125 0l0 -5.296875q0 -1.359375 -0.140625 -1.625q-0.140625 -0.28125 -0.21875 -0.296875q-0.078125 -0.03125 -0.234375 -0.03125q-0.4375 0 -0.625 0.53125q-0.15625 0.390625 -0.15625 1.4375l0 5.28125l-1.71875 0l0 -5.203125q0 -1.5 -0.328125 -1.90625q-0.109375 -0.140625 -0.34375 -0.140625q-0.21875 0 -0.375 0.21875q-0.4375 0.515625 -0.4375 1.453125l0 5.578125l-1.8125 0l0 -8.625l1.640625 0l-0.109375 0.75q-0.125 -0.09375 0.296875 -0.546875q0.4375 -0.453125 1.109375 -0.453125q0.6875 0 1.15625 0.390625q0.46875 0.390625 0.390625 0.515625zm6.701416 7.546875q-0.90625 -0.609375 -1.34375 -1.625q-0.4375 -1.015625 -0.4375 -2.265625q0 -1.265625 0.390625 -2.28125q0.40625 -1.015625 1.234375 -1.640625q0.828125 -0.640625 1.828125 -0.640625q1.859375 0 2.71875 1.265625q0.859375 1.265625 0.859375 3.0625l0 0.734375l-5.078125 0q0.03125 0.84375 0.53125 1.609375q0.5 0.765625 1.484375 0.765625q0.6875 -0.078125 2.28125 -0.9375l0.6875 1.375q-1.1875 1.1875 -2.96875 1.1875q-1.265625 0 -2.1875 -0.609375zm3.359375 -4.953125q-0.109375 -1.875 -1.40625 -1.875q-1.53125 0 -1.71875 1.875l3.125 0zm6.888916 5.375l-1.9375 0l0 -8.625l1.671875 0l0.0625 0.8125q0.046875 -0.09375 0.90625 -0.578125q0.875 -0.484375 1.953125 -0.484375l0.953125 0l0 1.84375l-1.140625 0q-1.171875 0 -1.828125 0.5625q-0.640625 0.5625 -0.640625 1.703125l0 4.765625zm10.904602 -1.296875q0.109375 0.28125 -0.59375 0.796875q-0.703125 0.5 -1.578125 0.5q-1.65625 0 -2.625 -1.28125q-0.96875 -1.28125 -0.96875 -3.09375q0 -2.40625 1.234375 -3.625q0.890625 -0.875 2.4375 -0.875q1.5625 0 1.953125 0.640625l0.015625 -0.390625l1.953125 0q-0.078125 2.09375 -0.078125 5.0625l0 2.15625q0 2.734375 -1.25 3.765625q-0.859375 0.71875 -2.59375 0.921875q-0.828125 0.09375 -2.203125 0.09375l-0.171875 -1.625q1.875 0 2.53125 -0.171875q0.65625 -0.171875 0.921875 -0.375q0.265625 -0.203125 0.46875 -0.53125q0.359375 -0.609375 0.359375 -1.96875l0.1875 0zm-0.75 -5.421875q-0.1875 -0.25 -0.515625 -0.390625q-0.3125 -0.140625 -0.75 -0.140625q-0.4375 0 -0.75 0.140625q-0.59375 0.265625 -0.828125 0.984375q-0.234375 0.703125 -0.234375 1.46875q0 0.75 0.0625 1.125q0.125 0.765625 0.53125 1.265625q0.40625 0.484375 1.15625 0.484375q1.203125 0 1.625 -1.078125q0.265625 -0.640625 0.265625 -1.328125q0 -0.703125 -0.0625 -1.109375q-0.046875 -0.421875 -0.1875 -0.796875q-0.125 -0.390625 -0.3125 -0.625zm5.982666 6.296875q-0.90625 -0.609375 -1.34375 -1.625q-0.4375 -1.015625 -0.4375 -2.265625q0 -1.265625 0.390625 -2.28125q0.40625 -1.015625 1.234375 -1.640625q0.828125 -0.640625 1.828125 -0.640625q1.859375 0 2.71875 1.265625q0.859375 1.265625 0.859375 3.0625l0 0.734375l-5.078125 0q0.03125 0.84375 0.53125 1.609375q0.5 0.765625 1.484375 0.765625q0.6875 -0.078125 2.28125 -0.9375l0.6875 1.375q-1.1875 1.1875 -2.96875 1.1875q-1.265625 0 -2.1875 -0.609375zm3.359375 -4.953125q-0.109375 -1.875 -1.40625 -1.875q-1.53125 0 -1.71875 1.875l3.125 0zm5.388916 1.015625q0 2.921875 1.953125 2.921875q1.734375 0 1.734375 -2.921875q0 -1.6875 -0.46875 -2.28125q-0.46875 -0.609375 -1.28125 -0.609375q-1.609375 0 -1.875 1.921875q-0.0625 0.421875 -0.0625 0.96875zm2.015625 4.546875q-0.859375 0 -1.53125 -0.390625q-0.671875 -0.40625 -0.59375 -0.546875l0.125 3.796875l-1.921875 0.21875l0 -11.890625l1.921875 0l-0.109375 0.703125q-0.0625 -0.109375 0.578125 -0.53125q0.65625 -0.421875 1.5 -0.421875q2.171875 0 3.078125 1.796875q0.5625 1.109375 0.5625 2.625q0 2.390625 -1.1875 3.6875q-0.875 0.953125 -2.421875 0.953125zm11.904541 -3.09375q0 3.09375 -3.40625 3.09375q-3.390625 0 -3.390625 -3.09375l0 -5.71875l1.921875 0l0 5.84375q0 0.71875 0.328125 1.03125q0.34375 0.3125 1.140625 0.3125q0.8125 0 1.140625 -0.3125q0.34375 -0.3125 0.34375 -1.03125l0 -5.84375l1.921875 0l0 5.71875zm6.435852 -2.234375q1.125 0.265625 1.671875 0.90625q0.5625 0.640625 0.5625 1.8125q0 1.171875 -0.90625 1.890625q-0.890625 0.71875 -2.203125 0.71875q-0.921875 0 -1.78125 -0.234375q-0.859375 -0.234375 -1.453125 -0.6875l0.515625 -1.5q0.59375 0.34375 1.21875 0.53125q0.625 0.1875 1.328125 0.1875q0.71875 0 1.078125 -0.25q0.375 -0.265625 0.375 -0.671875q0 -0.421875 -0.171875 -0.640625q-0.171875 -0.234375 -0.71875 -0.375l-1.375 -0.328125q-1.296875 -0.3125 -1.734375 -0.953125q-0.4375 -0.65625 -0.4375 -1.59375q0 -0.953125 0.765625 -1.734375q0.765625 -0.796875 2.171875 -0.8125l0.109375 0q1.53125 0 2.828125 0.703125l-0.453125 1.484375q-1.328125 -0.5625 -2.359375 -0.5625q-0.578125 0.015625 -0.921875 0.28125q-0.328125 0.25 -0.328125 0.625q0 0.375 0.140625 0.5625q0.15625 0.171875 0.671875 0.296875l1.40625 0.34375zm11.185791 0l0 5.140625l-1.921875 0l0 -4.984375q0 -1.40625 -0.34375 -1.859375q-0.3125 -0.40625 -0.984375 -0.40625q-0.6875 0 -1.203125 0.484375q-0.515625 0.484375 -0.515625 1.0l0 5.765625l-1.9375 0l0 -11.875l1.9375 -0.21875l0 3.859375q0.5 -0.640625 2.203125 -0.640625q2.765625 0 2.765625 3.734375z" fill-rule="nonzero"></path><path fill="#000000" d="m580.8323 118.37749l3.5625 -3.25l1.671875 0l-3.578125 3.328125l4.078125 4.703125l-1.671875 0l-3.34375 -4.09375l-0.71875 0.640625l0 3.453125l-1.34375 0l0 -11.3125l1.34375 -0.15625l0 6.6875zm13.263977 4.25q-0.78125 0.71875 -2.1875 0.71875q-0.921875 0 -1.671875 -0.34375q-0.734375 -0.359375 -1.21875 -0.9375q-1.0 -1.234375 -1.0 -2.96875q0 -1.125 0.453125 -2.078125q0.46875 -0.953125 1.359375 -1.546875q0.890625 -0.59375 2.203125 -0.59375q1.3125 0 2.03125 0.703125l-0.328125 0.890625q-0.84375 -0.5625 -1.90625 -0.5625q-1.0625 0 -1.765625 0.90625q-0.703125 0.90625 -0.703125 2.3125q0 1.40625 0.703125 2.296875q0.703125 0.890625 1.78125 0.890625q1.09375 0 1.921875 -0.578125l0.328125 0.890625zm9.092041 -4.3125l0 4.84375l-1.328125 0l0 -4.6875q0 -1.5 -0.40625 -2.03125q-0.390625 -0.53125 -1.21875 -0.53125q-0.8125 0 -1.421875 0.578125q-0.59375 0.5625 -0.59375 1.203125l0 5.46875l-1.34375 0l0 -11.3125l1.34375 -0.15625l0 4.40625q0.9375 -1.21875 2.5 -1.21875q2.46875 0 2.46875 3.4375zm7.373291 3.046875l0 -2.046875l-1.09375 0.15625q-1.140625 0.15625 -1.578125 0.3125q-0.984375 0.375 -0.984375 1.265625q0 0.59375 0.34375 0.953125q0.359375 0.359375 0.96875 0.359375q1.359375 0 2.34375 -1.0zm0 -3.734375q0 -1.734375 -1.453125 -1.734375q-0.6875 0 -1.53125 0.171875q-0.828125 0.15625 -1.15625 0.296875l-0.3125 -0.96875q1.515625 -0.515625 2.84375 -0.515625q1.328125 0 2.125 0.609375q0.8125 0.609375 0.8125 1.875l0 5.796875l-1.09375 0l-0.1875 -0.9375q-0.46875 0.484375 -1.203125 0.8125q-0.734375 0.3125 -1.4375 0.3125q-1.015625 0 -1.6875 -0.609375q-0.671875 -0.625 -0.671875 -1.734375q0 -1.125 0.875 -1.640625q0.59375 -0.359375 1.265625 -0.5q0.671875 -0.140625 1.75 -0.265625l1.0625 -0.125l0 -0.84375zm7.795166 -2.75q2.5 0 2.5 3.171875l0 5.109375l-1.328125 0l0 -4.953125q0 -0.84375 -0.09375 -1.203125q-0.078125 -0.375 -0.265625 -0.609375q-0.375 -0.484375 -1.21875 -0.484375q-0.859375 0 -1.453125 0.5q-0.59375 0.5 -0.59375 1.3125l0 5.4375l-1.328125 0l0 -8.03125l1.21875 0l0.078125 0.875q0.796875 -1.125 2.484375 -1.125zm10.076477 6.75q-0.25 0.625 -0.875 1.078125q-0.625 0.453125 -1.40625 0.453125q-1.515625 0 -2.40625 -1.171875q-0.890625 -1.1875 -0.890625 -2.90625q0 -2.28125 1.140625 -3.40625q0.8125 -0.796875 2.21875 -0.796875q1.40625 0 2.21875 1.34375l0.046875 -1.09375l1.359375 0q-0.0625 1.796875 -0.0625 4.765625l0 2.15625q0 2.59375 -1.140625 3.53125q-0.796875 0.671875 -2.4375 0.859375q-0.8125 0.09375 -1.90625 0.09375l-0.109375 -1.03125q1.59375 0 2.28125 -0.1875q0.703125 -0.1875 1.015625 -0.421875q0.3125 -0.234375 0.546875 -0.609375q0.40625 -0.6875 0.40625 -2.125l0 -0.53125zm-0.640625 -5.078125q-0.21875 -0.296875 -0.609375 -0.46875q-0.375 -0.171875 -0.875 -0.171875q-0.5 0 -0.875 0.171875q-0.703125 0.3125 -0.96875 1.109375q-0.265625 0.796875 -0.265625 1.59375q0 0.78125 0.0625 1.1875q0.140625 0.84375 0.609375 1.421875q0.484375 0.578125 1.375 0.578125q1.40625 0 1.90625 -1.265625q0.28125 -0.6875 0.28125 -1.421875q0 -0.734375 -0.0625 -1.171875q-0.046875 -0.4375 -0.203125 -0.859375q-0.140625 -0.421875 -0.375 -0.703125zm9.435791 -5.0l1.4375 0l-5.1875 13.25l-1.40625 0l5.15625 -13.25zm4.935791 8.546875q0.125 1.03125 0.609375 1.625q0.5 0.59375 1.5 0.59375q1.34375 0 1.828125 -1.40625q0.234375 -0.75 0.234375 -1.546875q0 -0.796875 -0.046875 -1.234375q-0.109375 -1.03125 -0.578125 -1.625q-0.453125 -0.59375 -1.4375 -0.59375q-1.640625 0 -2.015625 1.578125q-0.15625 0.65625 -0.15625 1.40625q0 0.75 0.0625 1.203125zm-0.0625 -3.859375q0.828125 -1.359375 2.4375 -1.359375q1.625 0 2.375 1.171875q0.765625 1.171875 0.765625 2.953125q0 2.3125 -1.09375 3.484375q-0.796875 0.859375 -2.15625 0.859375q-0.90625 0 -1.375 -0.328125q-0.46875 -0.34375 -0.953125 -0.953125l0 1.09375l-1.328125 0l0 -11.3125l1.328125 -0.15625l0 4.546875zm13.826416 4.3125q0 2.796875 -3.109375 2.796875q-3.09375 0 -3.09375 -2.796875l0 -5.421875l1.328125 0l0 5.546875q0 0.84375 0.421875 1.25q0.421875 0.390625 1.34375 0.390625q0.921875 0 1.34375 -0.390625q0.4375 -0.40625 0.4375 -1.25l0 -5.546875l1.328125 0l0 5.421875zm7.685852 1.078125q-0.25 0.625 -0.875 1.078125q-0.625 0.453125 -1.40625 0.453125q-1.515625 0 -2.40625 -1.171875q-0.890625 -1.1875 -0.890625 -2.90625q0 -2.28125 1.140625 -3.40625q0.8125 -0.796875 2.21875 -0.796875q1.40625 0 2.21875 1.34375l0.046875 -1.09375l1.359375 0q-0.0625 1.796875 -0.0625 4.765625l0 2.15625q0 2.59375 -1.140625 3.53125q-0.796875 0.671875 -2.4375 0.859375q-0.8125 0.09375 -1.90625 0.09375l-0.109375 -1.03125q1.59375 0 2.28125 -0.1875q0.703125 -0.1875 1.015625 -0.421875q0.3125 -0.234375 0.546875 -0.609375q0.40625 -0.6875 0.40625 -2.125l0 -0.53125zm-0.640625 -5.078125q-0.21875 -0.296875 -0.609375 -0.46875q-0.375 -0.171875 -0.875 -0.171875q-0.5 0 -0.875 0.171875q-0.703125 0.3125 -0.96875 1.109375q-0.265625 0.796875 -0.265625 1.59375q0 0.78125 0.0625 1.1875q0.140625 0.84375 0.609375 1.421875q0.484375 0.578125 1.375 0.578125q1.40625 0 1.90625 -1.265625q0.28125 -0.6875 0.28125 -1.421875q0 -0.734375 -0.0625 -1.171875q-0.046875 -0.4375 -0.203125 -0.859375q-0.140625 -0.421875 -0.375 -0.703125zm7.873291 6.609375l-1.328125 0l0 -7.015625l-2.09375 0l0 -1.015625l2.09375 0q0 -1.484375 0.125 -1.875q0.234375 -0.765625 0.59375 -1.09375q0.71875 -0.609375 2.59375 -0.609375l0.765625 0l-0.0625 1.03125l-0.734375 0q-0.5625 0 -0.90625 0.046875q-0.328125 0.046875 -0.578125 0.21875q-0.46875 0.296875 -0.46875 1.296875l0 0.984375l2.75 0l0 1.015625l-2.75 0l0 7.015625zm7.795166 -10.15625l0 -0.71875q0 -0.265625 0.296875 -0.46875q0.296875 -0.203125 0.59375 -0.203125q0.296875 0 0.59375 0.203125q0.296875 0.203125 0.296875 0.46875l0 0.71875q0 0.265625 -0.296875 0.46875q-0.296875 0.203125 -0.59375 0.203125q-0.296875 0 -0.59375 -0.203125q-0.296875 -0.203125 -0.296875 -0.46875zm-2.0625 3.140625l0 -1.015625l3.625 0l0 7.0l2.296875 0l0 1.03125l-6.1875 0l0 -1.03125l2.546875 0l0 -5.984375l-2.28125 0zm8.076416 -1.015625l1.53125 0l1.90625 3.09375l1.906311 -3.09375l1.390625 0l-2.468811 3.890625l2.546936 4.140625l-1.46875 0l-1.968811 -3.203125l-2.046875 3.203125l-1.453125 0l2.625 -4.109375l-2.5 -3.921875z" fill-rule="nonzero"></path><path fill="#000000" fill-opacity="0.0" d="m414.0105 389.76117l268.50397 0l0 31.433044l-268.50397 0z" fill-rule="evenodd"></path><path fill="#990000" d="m433.8289 408.92395l-1.21875 1.21875l0 3.875l-3.390625 0l0 -18.0l3.390625 0l0 9.96875l0.65625 -0.84375l3.25 -3.8125l4.0625 0l-4.578125 5.296875l4.984375 7.390625l-3.890625 0l-3.265625 -5.09375zm13.4921875 2.59375q0.9375 0 1.515625 -0.515625q0.59375 -0.515625 0.609375 -1.375l3.1875 0q-0.015625 1.296875 -0.71875 2.375q-0.6875 1.0625 -1.890625 1.65625q-1.1875 0.59375 -2.640625 0.59375q-2.71875 0 -4.296875 -1.71875q-1.5625 -1.734375 -1.5625 -4.78125l0 -0.234375q0 -2.921875 1.546875 -4.671875q1.5625 -1.75 4.28125 -1.75q2.375 0 3.8125 1.359375q1.4375 1.359375 1.46875 3.609375l-3.1875 0q-0.015625 -0.984375 -0.609375 -1.59375q-0.578125 -0.625 -1.546875 -0.625q-1.171875 0 -1.78125 0.859375q-0.609375 0.859375 -0.609375 2.796875l0 0.34375q0 1.96875 0.59375 2.828125q0.609375 0.84375 1.828125 0.84375zm10.546875 -8.796875q1.34375 -1.625 3.390625 -1.625q4.125 0 4.171875 4.796875l0 8.125l-3.375 0l0 -8.03125q0 -1.09375 -0.46875 -1.609375q-0.46875 -0.515625 -1.5625 -0.515625q-1.484375 0 -2.15625 1.140625l0 9.015625l-3.390625 0l0 -18.0l3.390625 0l0 6.703125zm17.476562 11.296875q-0.234375 -0.453125 -0.34375 -1.140625q-1.234375 1.375 -3.203125 1.375q-1.859375 0 -3.09375 -1.078125q-1.21875 -1.078125 -1.21875 -2.71875q0 -2.015625 1.484375 -3.09375q1.5 -1.078125 4.328125 -1.09375l1.5625 0l0 -0.71875q0 -0.890625 -0.453125 -1.40625q-0.453125 -0.53125 -1.421875 -0.53125q-0.859375 0 -1.34375 0.40625q-0.484375 0.40625 -0.484375 1.125l-3.390625 0q0 -1.09375 0.671875 -2.03125q0.6875 -0.9375 1.921875 -1.46875q1.25 -0.546875 2.796875 -0.546875q2.34375 0 3.71875 1.1875q1.375 1.171875 1.375 3.3125l0 5.484375q0.015625 1.8125 0.515625 2.734375l0 0.203125l-3.421875 0zm-2.8125 -2.359375q0.75 0 1.375 -0.328125q0.640625 -0.34375 0.953125 -0.90625l0 -2.171875l-1.265625 0q-2.546875 0 -2.703125 1.75l-0.015625 0.203125q0 0.640625 0.4375 1.046875q0.453125 0.40625 1.21875 0.40625zm11.4453125 -10.328125l0.109375 1.46875q1.359375 -1.703125 3.640625 -1.703125q2.015625 0 3.0 1.1875q0.984375 1.1875 1.0 3.546875l0 8.1875l-3.375 0l0 -8.109375q0 -1.078125 -0.46875 -1.5625q-0.46875 -0.484375 -1.5625 -0.484375q-1.4375 0 -2.140625 1.21875l0 8.9375l-3.390625 0l0 -12.6875l3.1875 0zm9.832031 6.25q0 -2.921875 1.390625 -4.703125q1.390625 -1.78125 3.734375 -1.78125q2.09375 0 3.25 1.4375l0.140625 -1.203125l3.078125 0l0 12.265625q0 1.671875 -0.765625 2.890625q-0.75 1.234375 -2.125 1.875q-1.375 0.65625 -3.203125 0.65625q-1.40625 0 -2.734375 -0.5625q-1.3125 -0.5625 -2.0 -1.4375l1.5 -2.0625q1.265625 1.421875 3.078125 1.421875q1.34375 0 2.09375 -0.71875q0.75 -0.71875 0.75 -2.046875l0 -0.6875q-1.171875 1.328125 -3.078125 1.328125q-2.28125 0 -3.703125 -1.78125q-1.40625 -1.796875 -1.40625 -4.75l0 -0.140625zm3.390625 0.25q0 1.71875 0.6875 2.703125q0.6875 0.96875 1.890625 0.96875q1.546875 0 2.21875 -1.15625l0 -5.328125q-0.671875 -1.15625 -2.1875 -1.15625q-1.21875 0 -1.921875 1.0q-0.6875 0.984375 -0.6875 2.96875zm11.871094 7.65625l-2.53125 0l6.2812195 -18.53125l2.53125 0l-6.2812195 18.53125zm19.324188 -7.6875q0 3.046875 -1.3125 4.75q-1.296875 1.703125 -3.625 1.703125q-2.0625 0 -3.296875 -1.578125l-0.15625 1.34375l-3.046875 0l0 -18.0l3.390625 0l0 6.453125q1.171875 -1.375 3.078125 -1.375q2.328125 0 3.640625 1.71875q1.328125 1.703125 1.328125 4.796875l0 0.1875zm-3.390625 -0.25q0 -1.921875 -0.609375 -2.796875q-0.609375 -0.890625 -1.8125 -0.890625q-1.625 0 -2.234375 1.3125l0 5.015625q0.625 1.328125 2.25 1.328125q1.640625 0 2.15625 -1.609375q0.25 -0.78125 0.25 -2.359375zm13.058594 5.171875q-1.25 1.53125 -3.46875 1.53125q-2.03125 0 -3.109375 -1.171875q-1.0625 -1.171875 -1.09375 -3.4375l0 -8.3125l3.390625 0l0 8.203125q0 1.96875 1.796875 1.96875q1.734375 0 2.375 -1.1875l0 -8.984375l3.390625 0l0 12.6875l-3.1875 0l-0.09375 -1.296875zm5.3515625 -5.140625q0 -2.921875 1.390625 -4.703125q1.390625 -1.78125 3.734375 -1.78125q2.09375 0 3.25 1.4375l0.140625 -1.203125l3.078125 0l0 12.265625q0 1.671875 -0.765625 2.890625q-0.75 1.234375 -2.125 1.875q-1.375 0.65625 -3.203125 0.65625q-1.40625 0 -2.734375 -0.5625q-1.3125 -0.5625 -2.0 -1.4375l1.5 -2.0625q1.265625 1.421875 3.078125 1.421875q1.34375 0 2.09375 -0.71875q0.75 -0.71875 0.75 -2.046875l0 -0.6875q-1.171875 1.328125 -3.078125 1.328125q-2.28125 0 -3.703125 -1.78125q-1.40625 -1.796875 -1.40625 -4.75l0 -0.140625zm3.390625 0.25q0 1.71875 0.6875 2.703125q0.6875 0.96875 1.890625 0.96875q1.546875 0 2.21875 -1.15625l0 -5.328125q-0.671875 -1.15625 -2.1875 -1.15625q-1.21875 0 -1.921875 1.0q-0.6875 0.984375 -0.6875 2.96875zm11.730469 6.1875l0 -10.203125l-1.890625 0l0 -2.484375l1.890625 0l0 -1.078125q0 -2.125 1.21875 -3.296875q1.21875 -1.1875 3.421875 -1.1875q0.703125 0 1.734375 0.234375l-0.046875 2.625q-0.421875 -0.109375 -1.03125 -0.109375q-1.90625 0 -1.90625 1.796875l0 1.015625l2.515625 0l0 2.484375l-2.515625 0l0 10.203125l-3.390625 0zm11.2421875 0l-3.390625 0l0 -12.6875l3.390625 0l0 12.6875zm-3.59375 -15.96875q0 -0.75 0.5 -1.234375q0.515625 -0.5 1.390625 -0.5q0.875 0 1.390625 0.5q0.515625 0.484375 0.515625 1.234375q0 0.78125 -0.53125 1.28125q-0.515625 0.484375 -1.375 0.484375q-0.84375 0 -1.375 -0.484375q-0.515625 -0.5 -0.515625 -1.28125zm11.207031 7.078125l2.140625 -3.796875l3.625 0l-3.609375 6.21875l3.75 6.46875l-3.625 0l-2.265625 -3.984375l-2.25 3.984375l-3.640625 0l3.765625 -6.46875l-3.609375 -6.21875l3.640625 0l2.078125 3.796875zm13.9765625 2.953125l-6.59375 0l0 -2.734375l6.59375 0l0 2.734375zm5.8984375 -6.75l0.09375 1.421875q1.359375 -1.65625 3.65625 -1.65625q2.4375 0 3.359375 1.9375q1.328125 -1.9375 3.8125 -1.9375q2.0625 0 3.0625 1.203125q1.015625 1.203125 1.015625 3.625l0 8.09375l-3.40625 0l0 -8.09375q0 -1.078125 -0.421875 -1.5625q-0.421875 -0.5 -1.484375 -0.5q-1.53125 0 -2.109375 1.453125l0.015625 8.703125l-3.390625 0l0 -8.078125q0 -1.09375 -0.4375 -1.578125q-0.4375 -0.5 -1.46875 -0.5q-1.453125 0 -2.09375 1.1875l0 8.96875l-3.390625 0l0 -12.6875l3.1875 0zm24.949219 12.6875q-0.234375 -0.453125 -0.34375 -1.140625q-1.234375 1.375 -3.203125 1.375q-1.859375 0 -3.09375 -1.078125q-1.21875 -1.078125 -1.21875 -2.71875q0 -2.015625 1.484375 -3.09375q1.5 -1.078125 4.328125 -1.09375l1.5625 0l0 -0.71875q0 -0.890625 -0.453125 -1.40625q-0.453125 -0.53125 -1.421875 -0.53125q-0.859375 0 -1.34375 0.40625q-0.484375 0.40625 -0.484375 1.125l-3.390625 0q0 -1.09375 0.671875 -2.03125q0.6875 -0.9375 1.921875 -1.46875q1.25 -0.546875 2.796875 -0.546875q2.34375 0 3.71875 1.1875q1.375 1.171875 1.375 3.3125l0 5.484375q0.015625 1.8125 0.515625 2.734375l0 0.203125l-3.421875 0zm-2.8125 -2.359375q0.75 0 1.375 -0.328125q0.640625 -0.34375 0.953125 -0.90625l0 -2.171875l-1.265625 0q-2.546875 0 -2.703125 1.75l-0.015625 0.203125q0 0.640625 0.4375 1.046875q0.453125 0.40625 1.21875 0.40625zm15.1953125 -1.140625q0 -0.625 -0.625 -0.984375q-0.609375 -0.359375 -1.96875 -0.640625q-4.515625 -0.953125 -4.515625 -3.84375q0 -1.6875 1.390625 -2.8125q1.40625 -1.140625 3.671875 -1.140625q2.40625 0 3.84375 1.140625q1.453125 1.140625 1.453125 2.953125l-3.375 0q0 -0.71875 -0.46875 -1.1875q-0.46875 -0.484375 -1.46875 -0.484375q-0.859375 0 -1.328125 0.390625q-0.46875 0.375 -0.46875 0.984375q0 0.5625 0.53125 0.90625q0.53125 0.34375 1.796875 0.59375q1.265625 0.25 2.140625 0.5625q2.6875 0.984375 2.6875 3.421875q0 1.734375 -1.5 2.8125q-1.484375 1.0625 -3.84375 1.0625q-1.59375 0 -2.828125 -0.5625q-1.234375 -0.578125 -1.9375 -1.5625q-0.703125 -1.0 -0.703125 -2.140625l3.21875 0q0.046875 0.90625 0.65625 1.390625q0.625 0.46875 1.671875 0.46875q0.96875 0 1.46875 -0.359375q0.5 -0.375 0.5 -0.96875zm9.527344 -12.296875l0 3.109375l2.171875 0l0 2.484375l-2.171875 0l0 6.328125q0 0.703125 0.265625 1.015625q0.265625 0.296875 1.03125 0.296875q0.5625 0 1.0 -0.078125l0 2.5625q-1.0 0.3125 -2.046875 0.3125q-3.5625 0 -3.640625 -3.59375l0 -6.84375l-1.84375 0l0 -2.484375l1.84375 0l0 -3.109375l3.390625 0zm9.890625 16.03125q-2.796875 0 -4.546875 -1.703125q-1.75 -1.71875 -1.75 -4.5625l0 -0.328125q0 -1.921875 0.734375 -3.421875q0.75 -1.5 2.09375 -2.3125q1.359375 -0.828125 3.09375 -0.828125q2.59375 0 4.09375 1.640625q1.5 1.640625 1.5 4.65625l0 1.390625l-8.078125 0q0.15625 1.234375 0.984375 1.984375q0.828125 0.75 2.09375 0.75q1.953125 0 3.0625 -1.421875l1.65625 1.875q-0.75 1.078125 -2.0625 1.6875q-1.296875 0.59375 -2.875 0.59375zm-0.390625 -10.40625q-1.0 0 -1.640625 0.6875q-0.625 0.671875 -0.796875 1.9375l4.71875 0l0 -0.265625q-0.03125 -1.125 -0.625 -1.734375q-0.578125 -0.625 -1.65625 -0.625zm14.644531 0.671875q-0.6875 -0.09375 -1.21875 -0.09375q-1.921875 0 -2.515625 1.296875l0 8.296875l-3.390625 0l0 -12.6875l3.203125 0l0.09375 1.515625q1.015625 -1.75 2.828125 -1.75q0.5625 0 1.046875 0.15625l-0.046875 3.265625z" fill-rule="nonzero"></path><path fill="#e06666" d="m328.4042 455.7393l0 -25.896912l0 0c0 -13.99704 11.346832 -25.343872 25.343872 -25.343872l37.252075 0l0 -7.3103943l15.356812 10.703735l-15.356812 10.703735l0 -7.3103943l-37.252075 0l0 0c-10.248871 0 -18.55722 8.30835 -18.55722 18.55719l0 25.896912z" fill-rule="evenodd"></path><path fill="#e06666" d="m684.7218 403.0433l43.050232 0c12.220093 0 22.126465 9.906372 22.126465 22.126465l0 15.584381l6.382324 0l-9.34491 13.407257l-9.344849 -13.407257l6.382324 0l0 -15.584381l0 0c0 -8.947754 -7.253601 -16.201355 -16.201355 -16.201355l-43.050232 0z" fill-rule="evenodd"></path><path fill="#000000" fill-opacity="0.0" d="m67.902885 375.29922l268.50394 0l0 38.33069l-268.50394 0z" fill-rule="evenodd"></path><path fill="#000000" d="m142.8785 389.24768q0.109375 0.28125 -0.59375 0.796875q-0.703125 0.5 -1.578125 0.5q-1.65625 0 -2.625 -1.28125q-0.96875 -1.28125 -0.96875 -3.09375q0 -2.40625 1.234375 -3.625q0.890625 -0.875 2.4375 -0.875q1.5625 0 1.953125 0.640625l0.015625 -0.390625l1.953125 0q-0.078125 2.09375 -0.078125 5.0625l0 2.15625q0 2.734375 -1.25 3.765625q-0.859375 0.71875 -2.59375 0.921875q-0.828125 0.09375 -2.203125 0.09375l-0.171875 -1.625q1.875 0 2.53125 -0.171875q0.65625 -0.171875 0.921875 -0.375q0.265625 -0.203125 0.46875 -0.53125q0.359375 -0.609375 0.359375 -1.96875l0.1875 0zm-0.75 -5.421875q-0.1875 -0.25 -0.515625 -0.390625q-0.3125 -0.140625 -0.75 -0.140625q-0.4375 0 -0.75 0.140625q-0.59375 0.265625 -0.828125 0.984375q-0.234375 0.703125 -0.234375 1.46875q0 0.75 0.0625 1.125q0.125 0.765625 0.53125 1.265625q0.40625 0.484375 1.15625 0.484375q1.203125 0 1.625 -1.078125q0.265625 -0.640625 0.265625 -1.328125q0 -0.703125 -0.0625 -1.109375q-0.046875 -0.421875 -0.1875 -0.796875q-0.125 -0.390625 -0.3125 -0.625zm6.7951813 -3.734375l0 -0.71875q0 -0.421875 0.390625 -0.6875q0.40625 -0.28125 0.796875 -0.28125q0.390625 0 0.78125 0.28125q0.40625 0.265625 0.40625 0.6875l0 0.71875q0 0.421875 -0.40625 0.703125q-0.390625 0.265625 -0.78125 0.265625q-0.390625 0 -0.796875 -0.265625q-0.390625 -0.28125 -0.390625 -0.703125zm-2.0625 3.4375l0 -1.609375l4.21875 0l0 7.0l2.296875 0l0 1.625l-6.78125 0l0 -1.625l2.546875 0l0 -5.390625l-2.28125 0zm11.779556 0l0 3.484375q0 0.671875 0.0625 1.03125q0.078125 0.34375 0.25 0.546875q0.171875 0.1875 0.46875 0.265625q0.3125 0.0625 0.90625 0.0625l1.78125 0l-0.109375 1.625l-1.625 0q-2.203125 0 -2.984375 -0.859375q-0.5 -0.578125 -0.625 -1.765625q-0.046875 -0.515625 -0.046875 -1.25l0 -3.140625l-2.3125 0l0.21875 -1.609375l2.09375 0l0 -2.6875l1.921875 -0.59375l0 3.28125l3.390625 0l0 1.609375l-3.390625 0zm20.715363 6.265625q-1.015625 0.9375 -2.53125 0.9375q-0.984375 0 -1.796875 -0.375q-0.796875 -0.390625 -1.328125 -1.015625q-1.0625 -1.3125 -1.0625 -3.15625q0 -1.1875 0.484375 -2.203125q0.5 -1.03125 1.453125 -1.671875q0.96875 -0.640625 2.390625 -0.640625q1.421875 0 2.359375 0.921875l-0.515625 1.421875q-1.09375 -0.71875 -2.046875 -0.71875q-0.9375 0 -1.5625 0.8125q-0.625 0.8125 -0.625 2.109375q0 1.296875 0.625 2.09375q0.625 0.796875 1.59375 0.796875q0.96875 0 2.03125 -0.75l0.53125 1.4375zm9.045181 -4.390625l0 5.140625l-1.921875 0l0 -4.984375q0 -1.40625 -0.34375 -1.859375q-0.3125 -0.40625 -0.984375 -0.40625q-0.6875 0 -1.203125 0.484375q-0.515625 0.484375 -0.515625 1.0l0 5.765625l-1.9375 0l0 -11.875l1.9375 -0.21875l0 3.859375q0.5 -0.640625 2.203125 -0.640625q2.765625 0 2.765625 3.734375zm3.6858063 4.71875q-0.90625 -0.609375 -1.34375 -1.625q-0.4375 -1.015625 -0.4375 -2.265625q0 -1.265625 0.390625 -2.28125q0.40625 -1.015625 1.234375 -1.640625q0.828125 -0.640625 1.828125 -0.640625q1.859375 0 2.7187653 1.265625q0.859375 1.265625 0.859375 3.0625l0 0.734375l-5.0781403 0q0.03125 0.84375 0.53125 1.609375q0.5 0.765625 1.484375 0.765625q0.6875 -0.078125 2.2812653 -0.9375l0.6875 1.375q-1.1875 1.1875 -2.9687653 1.1875q-1.265625 0 -2.1875 -0.609375zm3.359375 -4.953125q-0.109375 -1.875 -1.40625 -1.875q-1.53125 0 -1.71875 1.875l3.125 0zm10.295181 4.625q-1.015625 0.9375 -2.53125 0.9375q-0.984375 0 -1.796875 -0.375q-0.796875 -0.390625 -1.328125 -1.015625q-1.0625 -1.3125 -1.0625 -3.15625q0 -1.1875 0.484375 -2.203125q0.5 -1.03125 1.453125 -1.671875q0.96875 -0.640625 2.390625 -0.640625q1.421875 0 2.359375 0.921875l-0.515625 1.421875q-1.09375 -0.71875 -2.046875 -0.71875q-0.9375 0 -1.5625 0.8125q-0.625 0.8125 -0.625 2.109375q0 1.296875 0.625 2.09375q0.625 0.796875 1.59375 0.796875q0.96875 0 2.03125 -0.75l0.53125 1.4375zm4.2795715 -5.0l3.15625 -2.875l2.53125 0l-3.921875 3.640625l4.328125 4.984375l-2.46875 0l-3.234375 -3.96875l-0.390625 0.359375l0 3.609375l-1.9375 0l0 -11.875l1.9375 -0.21875l0 6.34375zm10.107666 4.3125q1.1875 0 1.625 -1.1875q0.25 -0.703125 0.25 -1.453125q0 -0.765625 -0.0625 -1.171875q-0.109375 -0.90625 -0.546875 -1.453125q-0.421875 -0.546875 -1.265625 -0.546875q-1.15625 0 -1.578125 1.21875q-0.25 0.71875 -0.25 1.5q0 1.421875 0.40625 2.265625q0.40625 0.828125 1.421875 0.828125zm2.859375 -6.15625q0.9375 1.265625 0.9375 3.265625q0 1.984375 -1.03125 3.25q-1.015625 1.265625 -2.765625 1.265625q-0.921875 0 -1.671875 -0.359375q-0.75 -0.359375 -1.203125 -1.015625q-0.890625 -1.234375 -0.890625 -3.203125q0 -1.96875 1.0 -3.21875q1.015625 -1.265625 2.84375 -1.265625q1.84375 0 2.78125 1.28125zm9.357697 4.6875q0 3.09375 -3.40625 3.09375q-3.390625 0 -3.390625 -3.09375l0 -5.71875l1.921875 0l0 5.84375q0 0.71875 0.328125 1.03125q0.34375 0.3125 1.140625 0.3125q0.8125 0 1.140625 -0.3125q0.34375 -0.3125 0.34375 -1.03125l0 -5.84375l1.921875 0l0 5.71875zm5.451416 -4.109375l0 3.484375q0 0.671875 0.0625 1.03125q0.078125 0.34375 0.25 0.546875q0.171875 0.1875 0.46875 0.265625q0.3125 0.0625 0.90625 0.0625l1.78125 0l-0.109375 1.625l-1.625 0q-2.203125 0 -2.984375 -0.859375q-0.5 -0.578125 -0.625 -1.765625q-0.046875 -0.515625 -0.046875 -1.25l0 -3.140625l-2.3125 0l0.21875 -1.609375l2.09375 0l0 -2.6875l1.921875 -0.59375l0 3.28125l3.390625 0l0 1.609375l-3.390625 0zm20.590363 0.359375l0 1.734375l-5.5 0l0 -1.734375l5.5 0zm4.1701965 3.265625q0.109375 0.9375 0.546875 1.46875q0.40625 0.484375 1.265625 0.484375q1.125 0 1.546875 -1.203125q0.21875 -0.703125 0.21875 -1.46875q0 -0.765625 -0.046875 -1.1875q-0.09375 -0.953125 -0.484375 -1.453125q-0.390625 -0.5 -1.234375 -0.5q-1.40625 0 -1.734375 1.34375q-0.140625 0.625 -0.140625 1.359375q0 0.71875 0.0625 1.15625zm-0.0625 -4.890625q0.359375 -0.59375 2.140625 -0.59375q1.78125 0 2.609375 1.28125q0.828125 1.265625 0.828125 3.140625q0 2.421875 -1.171875 3.6875q-0.890625 0.953125 -2.375 0.953125q-1.0 0 -1.53125 -0.375q-0.515625 -0.375 -0.53125 -0.421875l0.03125 0.609375l-1.921875 0l0 -11.875l1.921875 -0.21875l0 3.8125z" fill-rule="nonzero"></path><path fill="#000000" d="m86.29491 403.7633l3.5625 -3.25l1.671875 0l-3.578125 3.328125l4.078125 4.703125l-1.671875 0l-3.34375 -4.09375l-0.71875 0.640625l0 3.453125l-1.34375 0l0 -11.3125l1.34375 -0.15625l0 6.6875zm13.263931 4.25q-0.78125 0.71875 -2.1875 0.71875q-0.921875 0 -1.671875 -0.34375q-0.734375 -0.359375 -1.21875 -0.9375q-1.0 -1.234375 -1.0 -2.96875q0 -1.125 0.453125 -2.078125q0.46875 -0.953125 1.359375 -1.546875q0.890625 -0.59375 2.203125 -0.59375q1.3125 0 2.03125 0.703125l-0.328125 0.890625q-0.84375 -0.5625 -1.90625 -0.5625q-1.0625 0 -1.765625 0.90625q-0.703125 0.90625 -0.703125 2.3125q0 1.40625 0.703125 2.296875q0.703125 0.890625 1.78125 0.890625q1.09375 0 1.921875 -0.578125l0.328125 0.890625zm9.092056 -4.3125l0 4.84375l-1.328125 0l0 -4.6875q0 -1.5 -0.40625 -2.03125q-0.390625 -0.53125 -1.21875 -0.53125q-0.8125 0 -1.421875 0.578125q-0.59375 0.5625 -0.59375 1.203125l0 5.46875l-1.34375 0l0 -11.3125l1.34375 -0.15625l0 4.40625q0.9375 -1.21875 2.5 -1.21875q2.46875 0 2.46875 3.4375zm7.3733063 3.046875l0 -2.046875l-1.09375 0.15625q-1.140625 0.15625 -1.578125 0.3125q-0.984375 0.375 -0.984375 1.265625q0 0.59375 0.34375 0.953125q0.359375 0.359375 0.96875 0.359375q1.359375 0 2.34375 -1.0zm0 -3.734375q0 -1.734375 -1.453125 -1.734375q-0.6875 0 -1.53125 0.171875q-0.828125 0.15625 -1.15625 0.296875l-0.3125 -0.96875q1.515625 -0.515625 2.84375 -0.515625q1.328125 0 2.125 0.609375q0.8125 0.609375 0.8125 1.875l0 5.796875l-1.09375 0l-0.1875 -0.9375q-0.46875 0.484375 -1.203125 0.8125q-0.734375 0.3125 -1.4375 0.3125q-1.015625 0 -1.6875 -0.609375q-0.671875 -0.625 -0.671875 -1.734375q0 -1.125 0.875 -1.640625q0.59375 -0.359375 1.265625 -0.5q0.671875 -0.140625 1.75 -0.265625l1.0625 -0.125l0 -0.84375zm7.7951813 -2.75q2.5 0 2.5 3.171875l0 5.109375l-1.328125 0l0 -4.953125q0 -0.84375 -0.09375 -1.203125q-0.078125 -0.375 -0.265625 -0.609375q-0.375 -0.484375 -1.21875 -0.484375q-0.859375 0 -1.453125 0.5q-0.59375 0.5 -0.59375 1.3125l0 5.4375l-1.328125 0l0 -8.03125l1.21875 0l0.078125 0.875q0.796875 -1.125 2.484375 -1.125zm10.076431 6.75q-0.25 0.625 -0.875 1.078125q-0.625 0.453125 -1.40625 0.453125q-1.515625 0 -2.40625 -1.171875q-0.890625 -1.1875 -0.890625 -2.90625q0 -2.28125 1.140625 -3.40625q0.8125 -0.796875 2.21875 -0.796875q1.40625 0 2.21875 1.34375l0.046875 -1.09375l1.359375 0q-0.0625 1.796875 -0.0625 4.765625l0 2.15625q0 2.59375 -1.140625 3.53125q-0.796875 0.671875 -2.4375 0.859375q-0.8125 0.09375 -1.90625 0.09375l-0.109375 -1.03125q1.59375 0 2.28125 -0.1875q0.703125 -0.1875 1.015625 -0.421875q0.3125 -0.234375 0.546875 -0.609375q0.40625 -0.6875 0.40625 -2.125l0 -0.53125zm-0.640625 -5.078125q-0.21875 -0.296875 -0.609375 -0.46875q-0.375 -0.171875 -0.875 -0.171875q-0.5 0 -0.875 0.171875q-0.703125 0.3125 -0.96875 1.109375q-0.265625 0.796875 -0.265625 1.59375q0 0.78125 0.0625 1.1875q0.140625 0.84375 0.609375 1.421875q0.484375 0.578125 1.375 0.578125q1.40625 0 1.90625 -1.265625q0.28125 -0.6875 0.28125 -1.421875q0 -0.734375 -0.0625 -1.171875q-0.046875 -0.4375 -0.203125 -0.859375q-0.140625 -0.421875 -0.375 -0.703125zm9.435806 -5.0l1.4375 0l-5.1875 13.25l-1.40625 0l5.15625 -13.25zm4.9358063 8.546875q0.125 1.03125 0.609375 1.625q0.5 0.59375 1.5 0.59375q1.34375 0 1.828125 -1.40625q0.234375 -0.75 0.234375 -1.546875q0 -0.796875 -0.046875 -1.234375q-0.109375 -1.03125 -0.578125 -1.625q-0.453125 -0.59375 -1.4375 -0.59375q-1.640625 0 -2.015625 1.578125q-0.15625 0.65625 -0.15625 1.40625q0 0.75 0.0625 1.203125zm-0.0625 -3.859375q0.828125 -1.359375 2.4375 -1.359375q1.625 0 2.375 1.171875q0.765625 1.171875 0.765625 2.953125q0 2.3125 -1.09375 3.484375q-0.796875 0.859375 -2.15625 0.859375q-0.90625 0 -1.375 -0.328125q-0.46875 -0.34375 -0.953125 -0.953125l0 1.09375l-1.328125 0l0 -11.3125l1.328125 -0.15625l0 4.546875zm13.826431 4.3125q0 2.796875 -3.109375 2.796875q-3.09375 0 -3.09375 -2.796875l0 -5.421875l1.328125 0l0 5.546875q0 0.84375 0.421875 1.25q0.421875 0.390625 1.34375 0.390625q0.921875 0 1.34375 -0.390625q0.4375 -0.40625 0.4375 -1.25l0 -5.546875l1.328125 0l0 5.421875zm7.6858063 1.078125q-0.25 0.625 -0.875 1.078125q-0.625 0.453125 -1.40625 0.453125q-1.515625 0 -2.40625 -1.171875q-0.890625 -1.1875 -0.890625 -2.90625q0 -2.28125 1.140625 -3.40625q0.8125 -0.796875 2.21875 -0.796875q1.40625 0 2.21875 1.34375l0.046875 -1.09375l1.359375 0q-0.0625 1.796875 -0.0625 4.765625l0 2.15625q0 2.59375 -1.140625 3.53125q-0.796875 0.671875 -2.4375 0.859375q-0.8125 0.09375 -1.90625 0.09375l-0.109375 -1.03125q1.59375 0 2.28125 -0.1875q0.703125 -0.1875 1.015625 -0.421875q0.3125 -0.234375 0.546875 -0.609375q0.40625 -0.6875 0.40625 -2.125l0 -0.53125zm-0.640625 -5.078125q-0.21875 -0.296875 -0.609375 -0.46875q-0.375 -0.171875 -0.875 -0.171875q-0.5 0 -0.875 0.171875q-0.703125 0.3125 -0.96875 1.109375q-0.265625 0.796875 -0.265625 1.59375q0 0.78125 0.0625 1.1875q0.140625 0.84375 0.609375 1.421875q0.484375 0.578125 1.375 0.578125q1.40625 0 1.90625 -1.265625q0.28125 -0.6875 0.28125 -1.421875q0 -0.734375 -0.0625 -1.171875q-0.046875 -0.4375 -0.203125 -0.859375q-0.140625 -0.421875 -0.375 -0.703125zm7.8733063 6.609375l-1.328125 0l0 -7.015625l-2.09375 0l0 -1.015625l2.09375 0q0 -1.484375 0.125 -1.875q0.234375 -0.765625 0.59375 -1.09375q0.71875 -0.609375 2.59375 -0.609375l0.765625 0l-0.0625 1.03125l-0.734375 0q-0.5625 0 -0.90625 0.046875q-0.328125 0.046875 -0.578125 0.21875q-0.46875 0.296875 -0.46875 1.296875l0 0.984375l2.75 0l0 1.015625l-2.75 0l0 7.015625zm7.7951813 -10.15625l0 -0.71875q0 -0.265625 0.296875 -0.46875q0.296875 -0.203125 0.59375 -0.203125q0.296875 0 0.59375 0.203125q0.296875 0.203125 0.296875 0.46875l0 0.71875q0 0.265625 -0.296875 0.46875q-0.296875 0.203125 -0.59375 0.203125q-0.296875 0 -0.59375 -0.203125q-0.296875 -0.203125 -0.296875 -0.46875zm-2.0625 3.140625l0 -1.015625l3.625 0l0 7.0l2.296875 0l0 1.03125l-6.1875 0l0 -1.03125l2.546875 0l0 -5.984375l-2.28125 0zm8.076431 -1.015625l1.53125 0l1.90625 3.09375l1.90625 -3.09375l1.3906403 0l-2.4687653 3.890625l2.5468903 4.140625l-1.4687653 0l-1.96875 -3.203125l-2.046875 3.203125l-1.453125 0l2.625 -4.109375l-2.5 -3.921875zm14.904556 1.96875l0 1.140625l-4.90625 0l0 -1.140625l4.90625 0zm6.4201965 -0.96875q0.484375 -1.25 1.6875 -1.25q1.53125 0 1.734375 2.203125q0.03125 0.421875 0.03125 0.921875l0 5.15625l-1.21875 0l0 -5.0q0 -1.4375 -0.1875 -1.78125q-0.1875 -0.359375 -0.34375 -0.40625q-0.15625 -0.0625 -0.359375 -0.0625q-0.640625 0 -0.90625 0.71875q-0.171875 0.453125 -0.171875 1.546875l0 4.984375l-1.125 0l0 -4.90625q0 -1.609375 -0.390625 -2.09375q-0.1875 -0.25 -0.5625 -0.25q-0.375 0 -0.625 0.328125q-0.5 0.59375 -0.5 1.640625l0 5.28125l-1.21875 0l0 -8.03125l1.0625 0l0.078125 1.0625q0.21875 -0.546875 0.578125 -0.921875q0.375 -0.390625 0.9375 -0.390625q0.5625 0 0.953125 0.328125q0.390625 0.328125 0.546875 0.921875zm10.123291 5.234375l0 -2.046875l-1.09375 0.15625q-1.140625 0.15625 -1.578125 0.3125q-0.984375 0.375 -0.984375 1.265625q0 0.59375 0.34375 0.953125q0.359375 0.359375 0.96875 0.359375q1.359375 0 2.34375 -1.0zm0 -3.734375q0 -1.734375 -1.453125 -1.734375q-0.6875 0 -1.53125 0.171875q-0.828125 0.15625 -1.15625 0.296875l-0.3125 -0.96875q1.515625 -0.515625 2.84375 -0.515625q1.328125 0 2.125 0.609375q0.8125 0.609375 0.8125 1.875l0 5.796875l-1.09375 0l-0.1875 -0.9375q-0.46875 0.484375 -1.203125 0.8125q-0.734375 0.3125 -1.4375 0.3125q-1.015625 0 -1.6875 -0.609375q-0.671875 -0.625 -0.671875 -1.734375q0 -1.125 0.875 -1.640625q0.59375 -0.359375 1.265625 -0.5q0.671875 -0.140625 1.75 -0.265625l1.0625 -0.125l0 -0.84375zm8.060822 0.96875q1.03125 0.25 1.515625 0.8125q0.484375 0.5625 0.484375 1.609375q0 1.046875 -0.8125 1.6875q-0.796875 0.640625 -2.0 0.640625q-0.875 0 -1.6875 -0.21875q-0.8125 -0.21875 -1.203125 -0.515625l0.328125 -0.953125q0.3125 0.1875 0.96875 0.390625q0.671875 0.1875 1.453125 0.1875q0.78125 0 1.25 -0.328125q0.46875 -0.328125 0.46875 -0.859375q0 -0.546875 -0.234375 -0.859375q-0.234375 -0.3125 -0.890625 -0.46875l-1.359375 -0.328125q-1.1875 -0.296875 -1.578125 -0.859375q-0.375 -0.5625 -0.375 -1.390625q0 -0.84375 0.671875 -1.546875q0.6875 -0.703125 1.96875 -0.71875l0.109375 0q1.453125 0 2.46875 0.546875l-0.28125 0.9375q-1.078125 -0.453125 -2.171875 -0.453125q-0.6875 0.015625 -1.125 0.359375q-0.421875 0.328125 -0.421875 0.828125q0 0.5 0.21875 0.765625q0.21875 0.25 0.828125 0.390625l1.40625 0.34375zm7.576416 -2.453125l0 3.78125q0 0.703125 0.078125 1.109375q0.078125 0.40625 0.3125 0.671875q0.234375 0.25 0.59375 0.34375q0.375 0.078125 1.0 0.078125l1.46875 0l-0.078125 1.03125l-1.34375 0q-2.078125 0 -2.765625 -0.765625q-0.4375 -0.5 -0.546875 -1.59375q-0.046875 -0.5 -0.046875 -1.21875l0 -3.4375l-2.265625 0l0.140625 -1.015625l2.125 0l0 -2.765625l1.328125 -0.40625l0 3.171875l3.390625 0l0 1.015625l-3.390625 0zm7.5295715 6.640625q-0.84375 -0.5625 -1.25 -1.5q-0.40625 -0.953125 -0.40625 -2.140625q0 -1.203125 0.375 -2.15625q0.375 -0.953125 1.125 -1.53125q0.75 -0.578125 1.65625 -0.578125q1.703125 0 2.484375 1.171875q0.796875 1.15625 0.796875 2.859375l0 0.4375l-5.09375 0q0.046875 1.234375 0.609375 2.109375q0.578125 0.859375 1.734375 0.859375q0.765625 -0.078125 2.140625 -0.828125l0.453125 0.90625q-0.953125 0.953125 -2.609375 0.953125q-1.171875 0 -2.015625 -0.5625zm3.5 -4.40625q-0.140625 -2.46875 -1.71875 -2.46875q-1.796875 0 -2.046875 2.46875l3.765625 0zm6.279541 4.78125l-1.34375 0l0 -8.03125l1.09375 0l0.109375 1.484375q0.5 -0.84375 1.296875 -1.28125q0.796875 -0.453125 1.796875 -0.453125l0.65625 0l0 1.25l-0.84375 0q-1.28125 0 -2.03125 0.640625q-0.734375 0.640625 -0.734375 1.921875l0 4.46875zm18.496613 -7.03125q0.484375 -1.25 1.6875 -1.25q1.53125 0 1.734375 2.203125q0.03125 0.421875 0.03125 0.921875l0 5.15625l-1.21875 0l0 -5.0q0 -1.4375 -0.1875 -1.78125q-0.1875 -0.359375 -0.34375 -0.40625q-0.15625 -0.0625 -0.359375 -0.0625q-0.640625 0 -0.90625 0.71875q-0.171875 0.453125 -0.171875 1.546875l0 4.984375l-1.125 0l0 -4.90625q0 -1.609375 -0.390625 -2.09375q-0.1875 -0.25 -0.5625 -0.25q-0.375 0 -0.625 0.328125q-0.5 0.59375 -0.5 1.640625l0 5.28125l-1.21875 0l0 -8.03125l1.0625 0l0.078125 1.0625q0.21875 -0.546875 0.578125 -0.921875q0.375 -0.390625 0.9375 -0.390625q0.5625 0 0.953125 0.328125q0.390625 0.328125 0.546875 0.921875zm10.123322 5.234375l0 -2.046875l-1.09375 0.15625q-1.140625 0.15625 -1.578125 0.3125q-0.984375 0.375 -0.984375 1.265625q0 0.59375 0.34375 0.953125q0.359375 0.359375 0.96875 0.359375q1.359375 0 2.34375 -1.0zm0 -3.734375q0 -1.734375 -1.453125 -1.734375q-0.6875 0 -1.53125 0.171875q-0.828125 0.15625 -1.15625 0.296875l-0.3125 -0.96875q1.515625 -0.515625 2.84375 -0.515625q1.328125 0 2.125 0.609375q0.8125 0.609375 0.8125 1.875l0 5.796875l-1.09375 0l-0.1875 -0.9375q-0.46875 0.484375 -1.203125 0.8125q-0.734375 0.3125 -1.4375 0.3125q-1.015625 0 -1.6875 -0.609375q-0.671875 -0.625 -0.671875 -1.734375q0 -1.125 0.875 -1.640625q0.59375 -0.359375 1.265625 -0.5q0.671875 -0.140625 1.75 -0.265625l1.0625 -0.125l0 -0.84375zm8.060791 0.96875q1.03125 0.25 1.515625 0.8125q0.484375 0.5625 0.484375 1.609375q0 1.046875 -0.8125 1.6875q-0.796875 0.640625 -2.0 0.640625q-0.875 0 -1.6875 -0.21875q-0.8125 -0.21875 -1.203125 -0.515625l0.328125 -0.953125q0.3125 0.1875 0.96875 0.390625q0.671875 0.1875 1.453125 0.1875q0.78125 0 1.25 -0.328125q0.46875 -0.328125 0.46875 -0.859375q0 -0.546875 -0.234375 -0.859375q-0.234375 -0.3125 -0.890625 -0.46875l-1.359375 -0.328125q-1.1875 -0.296875 -1.578125 -0.859375q-0.375 -0.5625 -0.375 -1.390625q0 -0.84375 0.671875 -1.546875q0.6875 -0.703125 1.96875 -0.71875l0.109375 0q1.453125 0 2.46875 0.546875l-0.28125 0.9375q-1.078125 -0.453125 -2.171875 -0.453125q-0.6875 0.015625 -1.125 0.359375q-0.421875 0.328125 -0.421875 0.828125q0 0.5 0.21875 0.765625q0.21875 0.25 0.828125 0.390625l1.40625 0.34375zm7.5764465 -2.453125l0 3.78125q0 0.703125 0.078125 1.109375q0.078125 0.40625 0.3125 0.671875q0.234375 0.25 0.59375 0.34375q0.375 0.078125 1.0 0.078125l1.46875 0l-0.078125 1.03125l-1.34375 0q-2.078125 0 -2.765625 -0.765625q-0.4375 -0.5 -0.546875 -1.59375q-0.046875 -0.5 -0.046875 -1.21875l0 -3.4375l-2.265625 0l0.140625 -1.015625l2.125 0l0 -2.765625l1.328125 -0.40625l0 3.171875l3.390625 0l0 1.015625l-3.390625 0zm7.529541 6.640625q-0.84375 -0.5625 -1.25 -1.5q-0.40625 -0.953125 -0.40625 -2.140625q0 -1.203125 0.375 -2.15625q0.375 -0.953125 1.125 -1.53125q0.75 -0.578125 1.65625 -0.578125q1.703125 0 2.484375 1.171875q0.796875 1.15625 0.796875 2.859375l0 0.4375l-5.09375 0q0.046875 1.234375 0.609375 2.109375q0.578125 0.859375 1.734375 0.859375q0.765625 -0.078125 2.140625 -0.828125l0.453125 0.90625q-0.953125 0.953125 -2.609375 0.953125q-1.171875 0 -2.015625 -0.5625zm3.5 -4.40625q-0.140625 -2.46875 -1.71875 -2.46875q-1.796875 0 -2.046875 2.46875l3.765625 0zm6.2795715 4.78125l-1.34375 0l0 -8.03125l1.09375 0l0.109375 1.484375q0.5 -0.84375 1.296875 -1.28125q0.796875 -0.453125 1.796875 -0.453125l0.65625 0l0 1.25l-0.84375 0q-1.28125 0 -2.03125 0.640625q-0.734375 0.640625 -0.734375 1.921875l0 4.46875z" fill-rule="nonzero"></path><path fill="#000000" fill-opacity="0.0" d="m751.64307 375.29922l195.93701 0l0 38.33069l-195.93701 0z" fill-rule="evenodd"></path><path fill="#000000" d="m815.252 382.5758q0.25 -0.90625 1.65625 -0.90625q1.796875 0 2.03125 2.46875q0.03125 0.4375 0.03125 0.953125l0 5.453125l-1.8125 0l0 -5.296875q0 -1.359375 -0.140625 -1.625q-0.140625 -0.28125 -0.21875 -0.296875q-0.078125 -0.03125 -0.234375 -0.03125q-0.4375 0 -0.625 0.53125q-0.15625 0.390625 -0.15625 1.4375l0 5.28125l-1.71875 0l0 -5.203125q0 -1.5 -0.328125 -1.90625q-0.109375 -0.140625 -0.34375 -0.140625q-0.21875 0 -0.375 0.21875q-0.4375 0.515625 -0.4375 1.453125l0 5.578125l-1.8125 0l0 -8.625l1.640625 0l-0.109375 0.75q-0.125 -0.09375 0.296875 -0.546875q0.4375 -0.453125 1.109375 -0.453125q0.6875 0 1.15625 0.390625q0.46875 0.390625 0.390625 0.515625zm6.701416 7.546875q-0.90625 -0.609375 -1.34375 -1.625q-0.4375 -1.015625 -0.4375 -2.265625q0 -1.265625 0.390625 -2.28125q0.40625 -1.015625 1.234375 -1.640625q0.828125 -0.640625 1.828125 -0.640625q1.859375 0 2.71875 1.265625q0.859375 1.265625 0.859375 3.0625l0 0.734375l-5.078125 0q0.03125 0.84375 0.53125 1.609375q0.5 0.765625 1.484375 0.765625q0.6875 -0.078125 2.28125 -0.9375l0.6875 1.375q-1.1875 1.1875 -2.96875 1.1875q-1.265625 0 -2.1875 -0.609375zm3.359375 -4.953125q-0.109375 -1.875 -1.40625 -1.875q-1.53125 0 -1.71875 1.875l3.125 0zm6.888916 5.375l-1.9375 0l0 -8.625l1.671875 0l0.0625 0.8125q0.046875 -0.09375 0.90625 -0.578125q0.875 -0.484375 1.953125 -0.484375l0.953125 0l0 1.84375l-1.140625 0q-1.171875 0 -1.828125 0.5625q-0.640625 0.5625 -0.640625 1.703125l0 4.765625zm10.904541 -1.296875q0.109375 0.28125 -0.59375 0.796875q-0.703125 0.5 -1.578125 0.5q-1.65625 0 -2.625 -1.28125q-0.96875 -1.28125 -0.96875 -3.09375q0 -2.40625 1.234375 -3.625q0.890625 -0.875 2.4375 -0.875q1.5625 0 1.953125 0.640625l0.015625 -0.390625l1.953125 0q-0.078125 2.09375 -0.078125 5.0625l0 2.15625q0 2.734375 -1.25 3.765625q-0.859375 0.71875 -2.59375 0.921875q-0.828125 0.09375 -2.203125 0.09375l-0.171875 -1.625q1.875 0 2.53125 -0.171875q0.65625 -0.171875 0.921875 -0.375q0.265625 -0.203125 0.46875 -0.53125q0.359375 -0.609375 0.359375 -1.96875l0.1875 0zm-0.75 -5.421875q-0.1875 -0.25 -0.515625 -0.390625q-0.3125 -0.140625 -0.75 -0.140625q-0.4375 0 -0.75 0.140625q-0.59375 0.265625 -0.828125 0.984375q-0.234375 0.703125 -0.234375 1.46875q0 0.75 0.0625 1.125q0.125 0.765625 0.53125 1.265625q0.40625 0.484375 1.15625 0.484375q1.203125 0 1.625 -1.078125q0.265625 -0.640625 0.265625 -1.328125q0 -0.703125 -0.0625 -1.109375q-0.046875 -0.421875 -0.1875 -0.796875q-0.125 -0.390625 -0.3125 -0.625zm5.982727 6.296875q-0.90625 -0.609375 -1.34375 -1.625q-0.4375 -1.015625 -0.4375 -2.265625q0 -1.265625 0.390625 -2.28125q0.40625 -1.015625 1.234375 -1.640625q0.828125 -0.640625 1.828125 -0.640625q1.859375 0 2.71875 1.265625q0.859375 1.265625 0.859375 3.0625l0 0.734375l-5.078125 0q0.03125 0.84375 0.53125 1.609375q0.5 0.765625 1.484375 0.765625q0.6875 -0.078125 2.28125 -0.9375l0.6875 1.375q-1.1875 1.1875 -2.96875 1.1875q-1.265625 0 -2.1875 -0.609375zm3.359375 -4.953125q-0.109375 -1.875 -1.40625 -1.875q-1.53125 0 -1.71875 1.875l3.125 0zm5.388916 1.015625q0 2.921875 1.953125 2.921875q1.734375 0 1.734375 -2.921875q0 -1.6875 -0.46875 -2.28125q-0.46875 -0.609375 -1.28125 -0.609375q-1.609375 0 -1.875 1.921875q-0.0625 0.421875 -0.0625 0.96875zm2.015625 4.546875q-0.859375 0 -1.53125 -0.390625q-0.671875 -0.40625 -0.59375 -0.546875l0.125 3.796875l-1.921875 0.21875l0 -11.890625l1.921875 0l-0.109375 0.703125q-0.0625 -0.109375 0.578125 -0.53125q0.65625 -0.421875 1.5 -0.421875q2.171875 0 3.078125 1.796875q0.5625 1.109375 0.5625 2.625q0 2.390625 -1.1875 3.6875q-0.875 0.953125 -2.421875 0.953125zm11.904541 -3.09375q0 3.09375 -3.40625 3.09375q-3.390625 0 -3.390625 -3.09375l0 -5.71875l1.921875 0l0 5.84375q0 0.71875 0.328125 1.03125q0.34375 0.3125 1.140625 0.3125q0.8125 0 1.140625 -0.3125q0.34375 -0.3125 0.34375 -1.03125l0 -5.84375l1.921875 0l0 5.71875zm6.435791 -2.234375q1.125 0.265625 1.671875 0.90625q0.5625 0.640625 0.5625 1.8125q0 1.171875 -0.90625 1.890625q-0.890625 0.71875 -2.203125 0.71875q-0.921875 0 -1.78125 -0.234375q-0.859375 -0.234375 -1.453125 -0.6875l0.515625 -1.5q0.59375 0.34375 1.21875 0.53125q0.625 0.1875 1.328125 0.1875q0.71875 0 1.078125 -0.25q0.375 -0.265625 0.375 -0.671875q0 -0.421875 -0.171875 -0.640625q-0.171875 -0.234375 -0.71875 -0.375l-1.375 -0.328125q-1.296875 -0.3125 -1.734375 -0.953125q-0.4375 -0.65625 -0.4375 -1.59375q0 -0.953125 0.765625 -1.734375q0.765625 -0.796875 2.171875 -0.8125l0.109375 0q1.53125 0 2.828125 0.703125l-0.453125 1.484375q-1.328125 -0.5625 -2.359375 -0.5625q-0.578125 0.015625 -0.921875 0.28125q-0.328125 0.25 -0.328125 0.625q0 0.375 0.140625 0.5625q0.15625 0.171875 0.671875 0.296875l1.40625 0.34375zm11.185852 0l0 5.140625l-1.921875 0l0 -4.984375q0 -1.40625 -0.34375 -1.859375q-0.3125 -0.40625 -0.984375 -0.40625q-0.6875 0 -1.203125 0.484375q-0.515625 0.484375 -0.515625 1.0l0 5.765625l-1.9375 0l0 -11.875l1.9375 -0.21875l0 3.859375q0.5 -0.640625 2.203125 -0.640625q2.765625 0 2.765625 3.734375z" fill-rule="nonzero"></path><path fill="#000000" d="m764.5347 403.7633l3.5625 -3.25l1.671875 0l-3.578125 3.328125l4.078125 4.703125l-1.671875 0l-3.34375 -4.09375l-0.71875 0.640625l0 3.453125l-1.34375 0l0 -11.3125l1.34375 -0.15625l0 6.6875zm13.263916 4.25q-0.78125 0.71875 -2.1875 0.71875q-0.921875 0 -1.671875 -0.34375q-0.734375 -0.359375 -1.21875 -0.9375q-1.0 -1.234375 -1.0 -2.96875q0 -1.125 0.453125 -2.078125q0.46875 -0.953125 1.359375 -1.546875q0.890625 -0.59375 2.203125 -0.59375q1.3125 0 2.03125 0.703125l-0.328125 0.890625q-0.84375 -0.5625 -1.90625 -0.5625q-1.0625 0 -1.765625 0.90625q-0.703125 0.90625 -0.703125 2.3125q0 1.40625 0.703125 2.296875q0.703125 0.890625 1.78125 0.890625q1.09375 0 1.921875 -0.578125l0.328125 0.890625zm9.092102 -4.3125l0 4.84375l-1.328125 0l0 -4.6875q0 -1.5 -0.40625 -2.03125q-0.390625 -0.53125 -1.21875 -0.53125q-0.8125 0 -1.421875 0.578125q-0.59375 0.5625 -0.59375 1.203125l0 5.46875l-1.34375 0l0 -11.3125l1.34375 -0.15625l0 4.40625q0.9375 -1.21875 2.5 -1.21875q2.46875 0 2.46875 3.4375zm7.373291 3.046875l0 -2.046875l-1.09375 0.15625q-1.140625 0.15625 -1.578125 0.3125q-0.984375 0.375 -0.984375 1.265625q0 0.59375 0.34375 0.953125q0.359375 0.359375 0.96875 0.359375q1.359375 0 2.34375 -1.0zm0 -3.734375q0 -1.734375 -1.453125 -1.734375q-0.6875 0 -1.53125 0.171875q-0.828125 0.15625 -1.15625 0.296875l-0.3125 -0.96875q1.515625 -0.515625 2.84375 -0.515625q1.328125 0 2.125 0.609375q0.8125 0.609375 0.8125 1.875l0 5.796875l-1.09375 0l-0.1875 -0.9375q-0.46875 0.484375 -1.203125 0.8125q-0.734375 0.3125 -1.4375 0.3125q-1.015625 0 -1.6875 -0.609375q-0.671875 -0.625 -0.671875 -1.734375q0 -1.125 0.875 -1.640625q0.59375 -0.359375 1.265625 -0.5q0.671875 -0.140625 1.75 -0.265625l1.0625 -0.125l0 -0.84375zm7.795166 -2.75q2.5 0 2.5 3.171875l0 5.109375l-1.328125 0l0 -4.953125q0 -0.84375 -0.09375 -1.203125q-0.078125 -0.375 -0.265625 -0.609375q-0.375 -0.484375 -1.21875 -0.484375q-0.859375 0 -1.453125 0.5q-0.59375 0.5 -0.59375 1.3125l0 5.4375l-1.328125 0l0 -8.03125l1.21875 0l0.078125 0.875q0.796875 -1.125 2.484375 -1.125zm10.076416 6.75q-0.25 0.625 -0.875 1.078125q-0.625 0.453125 -1.40625 0.453125q-1.515625 0 -2.40625 -1.171875q-0.890625 -1.1875 -0.890625 -2.90625q0 -2.28125 1.140625 -3.40625q0.8125 -0.796875 2.21875 -0.796875q1.40625 0 2.21875 1.34375l0.046875 -1.09375l1.359375 0q-0.0625 1.796875 -0.0625 4.765625l0 2.15625q0 2.59375 -1.140625 3.53125q-0.796875 0.671875 -2.4375 0.859375q-0.8125 0.09375 -1.90625 0.09375l-0.109375 -1.03125q1.59375 0 2.28125 -0.1875q0.703125 -0.1875 1.015625 -0.421875q0.3125 -0.234375 0.546875 -0.609375q0.40625 -0.6875 0.40625 -2.125l0 -0.53125zm-0.640625 -5.078125q-0.21875 -0.296875 -0.609375 -0.46875q-0.375 -0.171875 -0.875 -0.171875q-0.5 0 -0.875 0.171875q-0.703125 0.3125 -0.96875 1.109375q-0.265625 0.796875 -0.265625 1.59375q0 0.78125 0.0625 1.1875q0.140625 0.84375 0.609375 1.421875q0.484375 0.578125 1.375 0.578125q1.40625 0 1.90625 -1.265625q0.28125 -0.6875 0.28125 -1.421875q0 -0.734375 -0.0625 -1.171875q-0.046875 -0.4375 -0.203125 -0.859375q-0.140625 -0.421875 -0.375 -0.703125zm9.435852 -5.0l1.4375 0l-5.1875 13.25l-1.40625 0l5.15625 -13.25zm4.935791 8.546875q0.125 1.03125 0.609375 1.625q0.5 0.59375 1.5 0.59375q1.34375 0 1.828125 -1.40625q0.234375 -0.75 0.234375 -1.546875q0 -0.796875 -0.046875 -1.234375q-0.109375 -1.03125 -0.578125 -1.625q-0.453125 -0.59375 -1.4375 -0.59375q-1.640625 0 -2.015625 1.578125q-0.15625 0.65625 -0.15625 1.40625q0 0.75 0.0625 1.203125zm-0.0625 -3.859375q0.828125 -1.359375 2.4375 -1.359375q1.625 0 2.375 1.171875q0.765625 1.171875 0.765625 2.953125q0 2.3125 -1.09375 3.484375q-0.796875 0.859375 -2.15625 0.859375q-0.90625 0 -1.375 -0.328125q-0.46875 -0.34375 -0.953125 -0.953125l0 1.09375l-1.328125 0l0 -11.3125l1.328125 -0.15625l0 4.546875zm13.826416 4.3125q0 2.796875 -3.109375 2.796875q-3.09375 0 -3.09375 -2.796875l0 -5.421875l1.328125 0l0 5.546875q0 0.84375 0.421875 1.25q0.421875 0.390625 1.34375 0.390625q0.921875 0 1.34375 -0.390625q0.4375 -0.40625 0.4375 -1.25l0 -5.546875l1.328125 0l0 5.421875zm7.685791 1.078125q-0.25 0.625 -0.875 1.078125q-0.625 0.453125 -1.40625 0.453125q-1.515625 0 -2.40625 -1.171875q-0.890625 -1.1875 -0.890625 -2.90625q0 -2.28125 1.140625 -3.40625q0.8125 -0.796875 2.21875 -0.796875q1.40625 0 2.21875 1.34375l0.046875 -1.09375l1.359375 0q-0.0625 1.796875 -0.0625 4.765625l0 2.15625q0 2.59375 -1.140625 3.53125q-0.796875 0.671875 -2.4375 0.859375q-0.8125 0.09375 -1.90625 0.09375l-0.109375 -1.03125q1.59375 0 2.28125 -0.1875q0.703125 -0.1875 1.015625 -0.421875q0.3125 -0.234375 0.546875 -0.609375q0.40625 -0.6875 0.40625 -2.125l0 -0.53125zm-0.640625 -5.078125q-0.21875 -0.296875 -0.609375 -0.46875q-0.375 -0.171875 -0.875 -0.171875q-0.5 0 -0.875 0.171875q-0.703125 0.3125 -0.96875 1.109375q-0.265625 0.796875 -0.265625 1.59375q0 0.78125 0.0625 1.1875q0.140625 0.84375 0.609375 1.421875q0.484375 0.578125 1.375 0.578125q1.40625 0 1.90625 -1.265625q0.28125 -0.6875 0.28125 -1.421875q0 -0.734375 -0.0625 -1.171875q-0.046875 -0.4375 -0.203125 -0.859375q-0.140625 -0.421875 -0.375 -0.703125zm7.873352 6.609375l-1.328125 0l0 -7.015625l-2.09375 0l0 -1.015625l2.09375 0q0 -1.484375 0.125 -1.875q0.234375 -0.765625 0.59375 -1.09375q0.71875 -0.609375 2.59375 -0.609375l0.765625 0l-0.0625 1.03125l-0.734375 0q-0.5625 0 -0.90625 0.046875q-0.328125 0.046875 -0.578125 0.21875q-0.46875 0.296875 -0.46875 1.296875l0 0.984375l2.75 0l0 1.015625l-2.75 0l0 7.015625zm7.795166 -10.15625l0 -0.71875q0 -0.265625 0.296875 -0.46875q0.296875 -0.203125 0.59375 -0.203125q0.296875 0 0.59375 0.203125q0.296875 0.203125 0.296875 0.46875l0 0.71875q0 0.265625 -0.296875 0.46875q-0.296875 0.203125 -0.59375 0.203125q-0.296875 0 -0.59375 -0.203125q-0.296875 -0.203125 -0.296875 -0.46875zm-2.0625 3.140625l0 -1.015625l3.625 0l0 7.0l2.296875 0l0 1.03125l-6.1875 0l0 -1.03125l2.546875 0l0 -5.984375l-2.28125 0zm8.076416 -1.015625l1.53125 0l1.90625 3.09375l1.90625 -3.09375l1.390625 0l-2.46875 3.890625l2.546875 4.140625l-1.46875 0l-1.96875 -3.203125l-2.046875 3.203125l-1.453125 0l2.625 -4.109375l-2.5 -3.921875zm14.904541 1.96875l0 1.140625l-4.90625 0l0 -1.140625l4.90625 0zm6.420227 -0.96875q0.484375 -1.25 1.6875 -1.25q1.53125 0 1.734375 2.203125q0.03125 0.421875 0.03125 0.921875l0 5.15625l-1.21875 0l0 -5.0q0 -1.4375 -0.1875 -1.78125q-0.1875 -0.359375 -0.34375 -0.40625q-0.15625 -0.0625 -0.359375 -0.0625q-0.640625 0 -0.90625 0.71875q-0.171875 0.453125 -0.171875 1.546875l0 4.984375l-1.125 0l0 -4.90625q0 -1.609375 -0.390625 -2.09375q-0.1875 -0.25 -0.5625 -0.25q-0.375 0 -0.625 0.328125q-0.5 0.59375 -0.5 1.640625l0 5.28125l-1.21875 0l0 -8.03125l1.0625 0l0.078125 1.0625q0.21875 -0.546875 0.578125 -0.921875q0.375 -0.390625 0.9375 -0.390625q0.5625 0 0.953125 0.328125q0.390625 0.328125 0.546875 0.921875zm10.123291 5.234375l0 -2.046875l-1.09375 0.15625q-1.140625 0.15625 -1.578125 0.3125q-0.984375 0.375 -0.984375 1.265625q0 0.59375 0.34375 0.953125q0.359375 0.359375 0.96875 0.359375q1.359375 0 2.34375 -1.0zm0 -3.734375q0 -1.734375 -1.453125 -1.734375q-0.6875 0 -1.53125 0.171875q-0.828125 0.15625 -1.15625 0.296875l-0.3125 -0.96875q1.515625 -0.515625 2.84375 -0.515625q1.328125 0 2.125 0.609375q0.8125 0.609375 0.8125 1.875l0 5.796875l-1.09375 0l-0.1875 -0.9375q-0.46875 0.484375 -1.203125 0.8125q-0.734375 0.3125 -1.4375 0.3125q-1.015625 0 -1.6875 -0.609375q-0.671875 -0.625 -0.671875 -1.734375q0 -1.125 0.875 -1.640625q0.59375 -0.359375 1.265625 -0.5q0.671875 -0.140625 1.75 -0.265625l1.0625 -0.125l0 -0.84375zm8.060791 0.96875q1.03125 0.25 1.515625 0.8125q0.484375 0.5625 0.484375 1.609375q0 1.046875 -0.8125 1.6875q-0.796875 0.640625 -2.0 0.640625q-0.875 0 -1.6875 -0.21875q-0.8125 -0.21875 -1.203125 -0.515625l0.328125 -0.953125q0.3125 0.1875 0.96875 0.390625q0.671875 0.1875 1.453125 0.1875q0.78125 0 1.25 -0.328125q0.46875 -0.328125 0.46875 -0.859375q0 -0.546875 -0.234375 -0.859375q-0.234375 -0.3125 -0.890625 -0.46875l-1.359375 -0.328125q-1.1875 -0.296875 -1.578125 -0.859375q-0.375 -0.5625 -0.375 -1.390625q0 -0.84375 0.671875 -1.546875q0.6875 -0.703125 1.96875 -0.71875l0.109375 0q1.453125 0 2.46875 0.546875l-0.28125 0.9375q-1.078125 -0.453125 -2.171875 -0.453125q-0.6875 0.015625 -1.125 0.359375q-0.421875 0.328125 -0.421875 0.828125q0 0.5 0.21875 0.765625q0.21875 0.25 0.828125 0.390625l1.40625 0.34375zm7.576416 -2.453125l0 3.78125q0 0.703125 0.078125 1.109375q0.078125 0.40625 0.3125 0.671875q0.234375 0.25 0.59375 0.34375q0.375 0.078125 1.0 0.078125l1.46875 0l-0.078125 1.03125l-1.34375 0q-2.078125 0 -2.765625 -0.765625q-0.4375 -0.5 -0.546875 -1.59375q-0.046875 -0.5 -0.046875 -1.21875l0 -3.4375l-2.265625 0l0.140625 -1.015625l2.125 0l0 -2.765625l1.328125 -0.40625l0 3.171875l3.390625 0l0 1.015625l-3.390625 0zm7.529602 6.640625q-0.84375 -0.5625 -1.25 -1.5q-0.40625 -0.953125 -0.40625 -2.140625q0 -1.203125 0.375 -2.15625q0.375 -0.953125 1.125 -1.53125q0.75 -0.578125 1.65625 -0.578125q1.703125 0 2.484375 1.171875q0.796875 1.15625 0.796875 2.859375l0 0.4375l-5.09375 0q0.046875 1.234375 0.609375 2.109375q0.578125 0.859375 1.734375 0.859375q0.765625 -0.078125 2.140625 -0.828125l0.453125 0.90625q-0.953125 0.953125 -2.609375 0.953125q-1.171875 0 -2.015625 -0.5625zm3.5 -4.40625q-0.140625 -2.46875 -1.71875 -2.46875q-1.796875 0 -2.046875 2.46875l3.765625 0zm6.279541 4.78125l-1.34375 0l0 -8.03125l1.09375 0l0.109375 1.484375q0.5 -0.84375 1.296875 -1.28125q0.796875 -0.453125 1.796875 -0.453125l0.65625 0l0 1.25l-0.84375 0q-1.28125 0 -2.03125 0.640625q-0.734375 0.640625 -0.734375 1.921875l0 4.46875z" fill-rule="nonzero"></path><path fill="#3c78d8" d="m593.6116 376.99567l5.3255615 0l0 -149.95499l9.60083 0l0 149.95499l5.3255615 0l-10.125977 13.541077z" fill-rule="evenodd"></path><path fill="#000000" fill-opacity="0.0" d="m615.9134 289.40552l103.370056 0l0 38.33069l-103.370056 0z" fill-rule="evenodd"></path><path fill="#000000" d="m631.0982 300.2915q0 2.921875 1.953125 2.921875q1.734375 0 1.734375 -2.921875q0 -1.6875 -0.46875 -2.28125q-0.46875 -0.609375 -1.28125 -0.609375q-1.609375 0 -1.875 1.921875q-0.0625 0.421875 -0.0625 0.96875zm2.015625 4.546875q-0.859375 0 -1.53125 -0.390625q-0.671875 -0.40625 -0.59375 -0.546875l0.125 3.796875l-1.921875 0.21875l0 -11.890625l1.921875 0l-0.109375 0.703125q-0.0625 -0.109375 0.578125 -0.53125q0.65625 -0.421875 1.5 -0.421875q2.171875 0 3.078125 1.796875q0.5625 1.109375 0.5625 2.625q0 2.390625 -1.1875 3.6875q-0.875 0.953125 -2.421875 0.953125zm11.904602 -3.09375q0 3.09375 -3.40625 3.09375q-3.390625 0 -3.390625 -3.09375l0 -5.71875l1.921875 0l0 5.84375q0 0.71875 0.328125 1.03125q0.34375 0.3125 1.140625 0.3125q0.8125 0 1.140625 -0.3125q0.34375 -0.3125 0.34375 -1.03125l0 -5.84375l1.921875 0l0 5.71875zm8.779541 2.90625l-1.34375 0q-1.46875 0 -2.140625 -0.328125q-0.40625 -0.1875 -0.65625 -0.453125q-0.625 -0.640625 -0.640625 -2.6875l0 -6.96875l-2.40625 0l0 -1.625l4.328125 0l0 8.53125q0 1.34375 0.203125 1.59375q0.203125 0.234375 0.53125 0.28125q0.328125 0.03125 0.734375 0.03125l1.484375 0l-0.09375 1.625zm8.795166 0l-1.34375 0q-1.46875 0 -2.140625 -0.328125q-0.40625 -0.1875 -0.65625 -0.453125q-0.625 -0.640625 -0.640625 -2.6875l0 -6.96875l-2.40625 0l0 -1.625l4.328125 0l0 8.53125q0 1.34375 0.203125 1.59375q0.203125 0.234375 0.53125 0.28125q0.328125 0.03125 0.734375 0.03125l1.484375 0l-0.09375 1.625zm5.826416 -7.96875q0.25 -0.90625 1.65625 -0.90625q1.796875 0 2.03125 2.46875q0.03125 0.4375 0.03125 0.953125l0 5.453125l-1.8125 0l0 -5.296875q0 -1.359375 -0.140625 -1.625q-0.140625 -0.28125 -0.21875 -0.296875q-0.078125 -0.03125 -0.234375 -0.03125q-0.4375 0 -0.625 0.53125q-0.15625 0.390625 -0.15625 1.4375l0 5.28125l-1.71875 0l0 -5.203125q0 -1.5 -0.328125 -1.90625q-0.109375 -0.140625 -0.34375 -0.140625q-0.21875 0 -0.375 0.21875q-0.4375 0.515625 -0.4375 1.453125l0 5.578125l-1.8125 0l0 -8.625l1.640625 0l-0.109375 0.75q-0.125 -0.09375 0.296875 -0.546875q0.4375 -0.453125 1.109375 -0.453125q0.6875 0 1.15625 0.390625q0.46875 0.390625 0.390625 0.515625zm6.701477 7.546875q-0.90625 -0.609375 -1.34375 -1.625q-0.4375 -1.015625 -0.4375 -2.265625q0 -1.265625 0.390625 -2.28125q0.40625 -1.015625 1.234375 -1.640625q0.828125 -0.640625 1.828125 -0.640625q1.859375 0 2.71875 1.265625q0.859375 1.265625 0.859375 3.0625l0 0.734375l-5.078125 0q0.03125 0.84375 0.53125 1.609375q0.5 0.765625 1.484375 0.765625q0.6875 -0.078125 2.28125 -0.9375l0.6875 1.375q-1.1875 1.1875 -2.96875 1.1875q-1.265625 0 -2.1875 -0.609375zm3.359375 -4.953125q-0.109375 -1.875 -1.40625 -1.875q-1.53125 0 -1.71875 1.875l3.125 0zm6.888916 5.375l-1.9375 0l0 -8.625l1.671875 0l0.0625 0.8125q0.046875 -0.09375 0.90625 -0.578125q0.875 -0.484375 1.953125 -0.484375l0.953125 0l0 1.84375l-1.140625 0q-1.171875 0 -1.828125 0.5625q-0.640625 0.5625 -0.640625 1.703125l0 4.765625zm10.904541 -1.296875q0.109375 0.28125 -0.59375 0.796875q-0.703125 0.5 -1.578125 0.5q-1.65625 0 -2.625 -1.28125q-0.96875 -1.28125 -0.96875 -3.09375q0 -2.40625 1.234375 -3.625q0.890625 -0.875 2.4375 -0.875q1.5625 0 1.953125 0.640625l0.015625 -0.390625l1.953125 0q-0.078125 2.09375 -0.078125 5.0625l0 2.15625q0 2.734375 -1.25 3.765625q-0.859375 0.71875 -2.59375 0.921875q-0.828125 0.09375 -2.203125 0.09375l-0.171875 -1.625q1.875 0 2.53125 -0.171875q0.65625 -0.171875 0.921875 -0.375q0.265625 -0.203125 0.46875 -0.53125q0.359375 -0.609375 0.359375 -1.96875l0.1875 0zm-0.75 -5.421875q-0.1875 -0.25 -0.515625 -0.390625q-0.3125 -0.140625 -0.75 -0.140625q-0.4375 0 -0.75 0.140625q-0.59375 0.265625 -0.828125 0.984375q-0.234375 0.703125 -0.234375 1.46875q0 0.75 0.0625 1.125q0.125 0.765625 0.53125 1.265625q0.40625 0.484375 1.15625 0.484375q1.203125 0 1.625 -1.078125q0.265625 -0.640625 0.265625 -1.328125q0 -0.703125 -0.0625 -1.109375q-0.046875 -0.421875 -0.1875 -0.796875q-0.125 -0.390625 -0.3125 -0.625zm5.982666 6.296875q-0.90625 -0.609375 -1.34375 -1.625q-0.4375 -1.015625 -0.4375 -2.265625q0 -1.265625 0.390625 -2.28125q0.40625 -1.015625 1.234375 -1.640625q0.828125 -0.640625 1.828125 -0.640625q1.859375 0 2.71875 1.265625q0.859375 1.265625 0.859375 3.0625l0 0.734375l-5.078125 0q0.03125 0.84375 0.53125 1.609375q0.5 0.765625 1.484375 0.765625q0.6875 -0.078125 2.28125 -0.9375l0.6875 1.375q-1.1875 1.1875 -2.96875 1.1875q-1.265625 0 -2.1875 -0.609375zm3.359375 -4.953125q-0.109375 -1.875 -1.40625 -1.875q-1.53125 0 -1.71875 1.875l3.125 0z" fill-rule="nonzero"></path><path fill="#000000" d="m636.4021 322.65088l-1.34375 0l0 -8.03125l1.09375 0l0.109375 1.484375q0.5 -0.84375 1.296875 -1.28125q0.796875 -0.453125 1.796875 -0.453125l0.65625 0l0 1.25l-0.84375 0q-1.28125 0 -2.03125 0.640625q-0.734375 0.640625 -0.734375 1.921875l0 4.46875zm7.810791 -0.375q-0.84375 -0.5625 -1.25 -1.5q-0.40625 -0.953125 -0.40625 -2.140625q0 -1.203125 0.375 -2.15625q0.375 -0.953125 1.125 -1.53125q0.75 -0.578125 1.65625 -0.578125q1.703125 0 2.484375 1.171875q0.796875 1.15625 0.796875 2.859375l0 0.4375l-5.09375 0q0.046875 1.234375 0.609375 2.109375q0.578125 0.859375 1.734375 0.859375q0.765625 -0.078125 2.140625 -0.828125l0.453125 0.90625q-0.953125 0.953125 -2.609375 0.953125q-1.171875 0 -2.015625 -0.5625zm3.5 -4.40625q-0.140625 -2.46875 -1.71875 -2.46875q-1.796875 0 -2.046875 2.46875l3.765625 0zm9.904541 4.78125l-1.0625 0q-1.40625 0 -2.015625 -0.296875q-0.359375 -0.171875 -0.5625 -0.390625q-0.546875 -0.5625 -0.5625 -2.484375l0 -7.265625l-2.40625 0l0 -1.03125l3.734375 0l0 8.234375q0 1.453125 0.265625 1.78125q0.28125 0.328125 0.671875 0.375q0.40625 0.046875 0.828125 0.046875l1.171875 0l-0.0625 1.03125zm8.451416 -6.0625l0 1.140625l-4.90625 0l0 -1.140625l4.90625 0zm3.263977 -3.359375q1.0 -0.421875 2.46875 -1.5l1.375 0l0 9.859375l2.296875 0l0 1.0625l-6.125 0l0 -1.0625l2.453125 0l0 -8.390625q-0.203125 0.125 -1.03125 0.625q-0.8125 0.484375 -1.4375 0.734375l0 -1.328125zm12.654541 9.421875l-2.203125 0l0 -2.203125l2.203125 0l0 2.203125zm5.779541 -3.234375q0 1.0 0.578125 1.65625q0.578125 0.640625 1.515625 0.640625q0.9375 0 1.5 -0.65625q0.578125 -0.671875 0.578125 -1.65625q0 -1.0 -0.546875 -1.671875q-0.53125 -0.6875 -1.515625 -0.6875q-0.96875 0 -1.546875 0.6875q-0.5625 0.6875 -0.5625 1.6875zm0.890625 -3.0q0.6875 -0.4375 1.578125 -0.4375q1.421875 0 2.265625 0.953125q0.84375 0.953125 0.84375 2.4375q0 0.796875 -0.296875 1.46875q-0.28125 0.65625 -0.765625 1.09375q-1.0 0.90625 -2.546875 0.90625q-1.53125 0 -2.484375 -0.96875q-0.9375 -0.984375 -0.9375 -2.796875q0 -1.828125 1.203125 -3.296875l3.328125 -4.046875l1.765625 0l-3.953125 4.6875zm7.060791 -3.1875q1.0 -0.421875 2.46875 -1.5l1.375 0l0 9.859375l2.296875 0l0 1.0625l-6.125 0l0 -1.0625l2.453125 0l0 -8.390625q-0.203125 0.125 -1.03125 0.625q-0.8125 0.484375 -1.4375 0.734375l0 -1.328125z" fill-rule="nonzero"></path><path fill="#8e7cc3" d="m234.32808 127.220474l0 0c0 -7.349304 5.957794 -13.307091 13.307098 -13.307091l0 0c3.529251 0 6.9139557 1.4019928 9.409531 3.8975601c2.4955444 2.4955597 3.8975525 5.880272 3.8975525 9.409531l0 0c0 7.349304 -5.957794 13.307083 -13.307083 13.307083l0 0c-7.349304 0 -13.307098 -5.957779 -13.307098 -13.307083z" fill-rule="evenodd"></path><path fill="#000000" fill-opacity="0.0" d="m237.50919 117.47244l20.251984 0l0 19.496063l-20.251984 0z" fill-rule="evenodd"></path><path fill="#ffffff" d="m249.31096 133.08047l-2.265625 0l0 -8.703125l-2.6875 0.828125l0 -1.828125l4.703125 -1.6875l0.25 0l0 11.390625z" fill-rule="nonzero"></path><path fill="#8e7cc3" d="m542.0761 125.65354l0 0c0 -7.3492966 5.9577637 -13.307083 13.307068 -13.307083l0 0c3.5292969 0 6.9140015 1.4019928 9.409546 3.8975525c2.4955444 2.4955673 3.897583 5.880272 3.897583 9.409531l0 0c0 7.3492966 -5.9578247 13.307091 -13.307129 13.307091l0 0c-7.349304 0 -13.307068 -5.957794 -13.307068 -13.307091z" fill-rule="evenodd"></path><path fill="#000000" fill-opacity="0.0" d="m545.2572 115.90551l20.252014 0l0 19.49607l-20.252014 0z" fill-rule="evenodd"></path><path fill="#ffffff" d="m559.37146 131.51355l-7.796875 0l0 -1.546875l3.671875 -3.9218826q0.765625 -0.828125 1.125 -1.4375q0.359375 -0.625 0.359375 -1.1875q0 -0.75 -0.390625 -1.1875q-0.375 -0.4375 -1.078125 -0.4375q-0.765625 0 -1.21875 0.53125q-0.4375 0.53125 -0.4375 1.390625l-2.265625 0q0 -1.046875 0.5 -1.90625q0.5 -0.859375 1.40625 -1.34375q0.90625 -0.484375 2.046875 -0.484375q1.765625 0 2.734375 0.84375q0.96875 0.84375 0.96875 2.375q0 0.84375 -0.4375 1.71875q-0.4375 0.875 -1.5 2.046875l-2.578125 2.7187576l4.890625 0l0 1.828125z" fill-rule="nonzero"></path><path fill="#e06666" d="m331.27823 411.03937l0 0c0 -7.349304 5.9577637 -13.307098 13.307068 -13.307098l0 0c3.5292664 0 6.913971 1.402008 9.409546 3.897583c2.4955444 2.4955444 3.8975525 5.880249 3.8975525 9.409515l0 0c0 7.349304 -5.957794 13.307098 -13.307098 13.307098l0 0c-7.349304 0 -13.307068 -5.957794 -13.307068 -13.307098z" fill-rule="evenodd"></path><path fill="#000000" fill-opacity="0.0" d="m334.45932 400.2546l20.251953 0l0 19.496063l-20.251953 0z" fill-rule="evenodd"></path><path fill="#ffffff" d="m343.07358 409.1751l1.203125 0q0.859375 0 1.265625 -0.421875q0.421875 -0.4375 0.421875 -1.15625q0 -0.6875 -0.421875 -1.0625q-0.40625 -0.390625 -1.125 -0.390625q-0.640625 0 -1.078125 0.359375q-0.4375 0.359375 -0.4375 0.921875l-2.265625 0q0 -0.890625 0.484375 -1.59375q0.484375 -0.703125 1.34375 -1.09375q0.859375 -0.40625 1.90625 -0.40625q1.796875 0 2.8125 0.859375q1.03125 0.859375 1.03125 2.375q0 0.78125 -0.484375 1.4375q-0.46875 0.65625 -1.234375 1.015625q0.953125 0.34375 1.421875 1.03125q0.484375 0.6875 0.484375 1.625q0 1.515625 -1.109375 2.4375q-1.109375 0.90625 -2.921875 0.90625q-1.703125 0 -2.796875 -0.890625q-1.078125 -0.90625 -1.078125 -2.390625l2.265625 0q0 0.640625 0.46875 1.046875q0.484375 0.40625 1.1875 0.40625q0.8125 0 1.265625 -0.421875q0.453125 -0.421875 0.453125 -1.125q0 -1.703125 -1.875 -1.703125l-1.1875 0l0 -1.765625z" fill-rule="nonzero"></path><path fill="#e06666" d="m725.2703 410.00262l0 0c0 -7.349304 5.9578247 -13.307098 13.307129 -13.307098l0 0c3.5292358 0 6.9139404 1.402008 9.409485 3.8975525c2.4956055 2.495575 3.897583 5.8802795 3.897583 9.409546l0 0c0 7.349304 -5.9577637 13.307098 -13.307068 13.307098l0 0c-7.349304 0 -13.307129 -5.957794 -13.307129 -13.307098z" fill-rule="evenodd"></path><path fill="#000000" fill-opacity="0.0" d="m728.4514 400.2546l20.252014 0l0 19.496063l-20.252014 0z" fill-rule="evenodd"></path><path fill="#ffffff" d="m735.097 410.26886l0.65625 -5.78125l6.375 0l0 1.875l-4.515625 0l-0.28125 2.453125q0.796875 -0.4375 1.703125 -0.4375q1.625 0 2.546875 1.015625q0.921875 1.0 0.921875 2.8125q0 1.109375 -0.46875 1.984375q-0.453125 0.859375 -1.328125 1.34375q-0.859375 0.484375 -2.046875 0.484375q-1.03125 0 -1.921875 -0.421875q-0.875 -0.421875 -1.390625 -1.171875q-0.5 -0.765625 -0.53125 -1.734375l2.234375 0q0.0625 0.71875 0.484375 1.109375q0.4375 0.390625 1.125 0.390625q0.765625 0 1.171875 -0.546875q0.421875 -0.546875 0.421875 -1.5625q0 -0.96875 -0.484375 -1.484375q-0.46875 -0.515625 -1.34375 -0.515625q-0.8125 0 -1.3125 0.421875l-0.21875 0.203125l-1.796875 -0.4375z" fill-rule="nonzero"></path><path fill="#3c78d8" d="m590.0735 305.22308l0 0c0 -7.3492737 5.9577637 -13.307068 13.307068 -13.307068l0 0c3.5292969 0 6.9140015 1.4019775 9.409546 3.8975525c2.4955444 2.495575 3.897583 5.8802795 3.897583 9.409515l0 0c0 7.349304 -5.9578247 13.307098 -13.307129 13.307098l0 0c-7.349304 0 -13.307068 -5.957794 -13.307068 -13.307098z" fill-rule="evenodd"></path><path fill="#000000" fill-opacity="0.0" d="m593.2546 295.47507l20.252014 0l0 19.496063l-20.252014 0z" fill-rule="evenodd"></path><path fill="#ffffff" d="m606.24384 306.80185l1.296875 0l0 1.8125l-1.296875 0l0 2.46875l-2.25 0l0 -2.46875l-4.671875 0l-0.09375 -1.421875l4.734375 -7.484375l2.28125 0l0 7.09375zm-4.765625 0l2.515625 0l0 -4.015625l-0.15625 0.25l-2.359375 3.765625z" fill-rule="nonzero"></path></g></svg>

